<?xml version="1.0" encoding="UTF-8" standalone="no"?>
<!DOCTYPE svg PUBLIC "-//W3C//DTD SVG 1.1//EN"
 "http://www.w3.org/Graphics/SVG/1.1/DTD/svg11.dtd">
<!-- Generated by graphviz version 7.1.0 (20230122.1345)
 -->
<!-- Title: snakemake_dag Pages: 1 -->
<svg width="1222pt" height="980pt"
 viewBox="0.00 0.00 1222.00 980.00" xmlns="http://www.w3.org/2000/svg" xmlns:xlink="http://www.w3.org/1999/xlink">
<g id="graph0" class="graph" transform="scale(1 1) rotate(0) translate(4 976)">
<title>snakemake_dag</title>
<polygon fill="white" stroke="none" points="-4,4 -4,-976 1218,-976 1218,4 -4,4"/>
<!-- 0 -->
<g id="node1" class="node">
<title>0</title>
<path fill="none" stroke="#d8a456" stroke-width="2" d="M273,-36C273,-36 243,-36 243,-36 237,-36 231,-30 231,-24 231,-24 231,-12 231,-12 231,-6 237,0 243,0 243,0 273,0 273,0 279,0 285,-6 285,-12 285,-12 285,-24 285,-24 285,-30 279,-36 273,-36"/>
<text text-anchor="middle" x="258" y="-15.5" font-family="sans" font-size="10.00">all</text>
</g>
<!-- 1 -->
<g id="node2" class="node">
<title>1</title>
<path fill="none" stroke="#d86e56" stroke-width="2" d="M306.5,-828C306.5,-828 241.5,-828 241.5,-828 235.5,-828 229.5,-822 229.5,-816 229.5,-816 229.5,-804 229.5,-804 229.5,-798 235.5,-792 241.5,-792 241.5,-792 306.5,-792 306.5,-792 312.5,-792 318.5,-798 318.5,-804 318.5,-804 318.5,-816 318.5,-816 318.5,-822 312.5,-828 306.5,-828"/>
<text text-anchor="middle" x="274" y="-807.5" font-family="sans" font-size="10.00">variant_counts</text>
</g>
<!-- 1&#45;&gt;0 -->
<g id="edge3" class="edge">
<title>1&#45;&gt;0</title>
<path fill="none" stroke="grey" stroke-width="2" d="M228.78,-802.55C160.25,-789.94 38,-755.1 38,-667 38,-667 38,-667 38,-449 38,-352.4 0,-331.6 0,-235 0,-235 0,-235 0,-161 0,-62.81 145.2,-32.03 217.74,-22.77"/>
<polygon fill="grey" stroke="grey" stroke-width="2" points="217.86,-26.28 227.38,-21.64 217.04,-19.33 217.86,-26.28"/>
</g>
<!-- 5 -->
<g id="node6" class="node">
<title>5</title>
<path fill="none" stroke="#56d8c1" stroke-width="2" d="M403,-756C403,-756 295,-756 295,-756 289,-756 283,-750 283,-744 283,-744 283,-732 283,-732 283,-726 289,-720 295,-720 295,-720 403,-720 403,-720 409,-720 415,-726 415,-732 415,-732 415,-744 415,-744 415,-750 409,-756 403,-756"/>
<text text-anchor="middle" x="349" y="-735.5" font-family="sans" font-size="10.00">analyze_variant_counts</text>
</g>
<!-- 1&#45;&gt;5 -->
<g id="edge10" class="edge">
<title>1&#45;&gt;5</title>
<path fill="none" stroke="grey" stroke-width="2" d="M292.93,-791.34C301.3,-783.52 311.33,-774.16 320.57,-765.53"/>
<polygon fill="grey" stroke="grey" stroke-width="2" points="322.68,-768.35 327.61,-758.97 317.91,-763.23 322.68,-768.35"/>
</g>
<!-- 11 -->
<g id="node12" class="node">
<title>11</title>
<path fill="none" stroke="#d8bc56" stroke-width="2" d="M618,-612C618,-612 564,-612 564,-612 558,-612 552,-606 552,-600 552,-600 552,-588 552,-588 552,-582 558,-576 564,-576 564,-576 618,-576 618,-576 624,-576 630,-582 630,-588 630,-588 630,-600 630,-600 630,-606 624,-612 618,-612"/>
<text text-anchor="middle" x="591" y="-591.5" font-family="sans" font-size="10.00">prob_escape</text>
</g>
<!-- 1&#45;&gt;11 -->
<g id="edge21" class="edge">
<title>1&#45;&gt;11</title>
<path fill="none" stroke="grey" stroke-width="2" d="M319.47,-801.57C382.56,-788.85 496.01,-756.85 559,-684 573.26,-667.51 581.34,-644.18 585.81,-625.55"/>
<polygon fill="grey" stroke="grey" stroke-width="2" points="589.2,-626.44 587.84,-615.94 582.35,-625 589.2,-626.44"/>
</g>
<!-- 12 -->
<g id="node13" class="node">
<title>12</title>
<path fill="none" stroke="#5673d8" stroke-width="2" d="M505,-108C505,-108 451,-108 451,-108 445,-108 439,-102 439,-96 439,-96 439,-84 439,-84 439,-78 445,-72 451,-72 451,-72 505,-72 505,-72 511,-72 517,-78 517,-84 517,-84 517,-96 517,-96 517,-102 511,-108 505,-108"/>
<text text-anchor="middle" x="478" y="-87.5" font-family="sans" font-size="10.00">sphinx_build</text>
</g>
<!-- 1&#45;&gt;12 -->
<g id="edge28" class="edge">
<title>1&#45;&gt;12</title>
<path fill="none" stroke="grey" stroke-width="2" d="M228.81,-793.98C177.85,-773.85 102,-732.83 102,-667 102,-667 102,-667 102,-521 102,-425.74 114,-402.26 114,-307 114,-307 114,-307 114,-233 114,-187.19 128.32,-170.06 166,-144 207.17,-115.52 347.79,-100.73 425.44,-94.57"/>
<polygon fill="grey" stroke="grey" stroke-width="2" points="425.53,-98.08 435.23,-93.82 424.99,-91.1 425.53,-98.08"/>
</g>
<!-- 19 -->
<g id="node20" class="node">
<title>19</title>
<path fill="none" stroke="#d88d56" stroke-width="2" d="M634.5,-180C634.5,-180 587.5,-180 587.5,-180 581.5,-180 575.5,-174 575.5,-168 575.5,-168 575.5,-156 575.5,-156 575.5,-150 581.5,-144 587.5,-144 587.5,-144 634.5,-144 634.5,-144 640.5,-144 646.5,-150 646.5,-156 646.5,-156 646.5,-168 646.5,-168 646.5,-174 640.5,-180 634.5,-180"/>
<text text-anchor="middle" x="611" y="-159.5" font-family="sans" font-size="10.00">docs_index</text>
</g>
<!-- 1&#45;&gt;19 -->
<g id="edge52" class="edge">
<title>1&#45;&gt;19</title>
<path fill="none" stroke="grey" stroke-width="2" d="M271.95,-791.07C270.36,-772.95 269.15,-744.24 274,-720 287.6,-652.01 302.81,-637.92 334,-576 418.88,-407.49 440.08,-362.48 559,-216 566.24,-207.08 574.74,-197.95 582.75,-189.83"/>
<polygon fill="grey" stroke="grey" stroke-width="2" points="585.03,-192.5 589.67,-182.97 580.1,-187.53 585.03,-192.5"/>
</g>
<!-- 2 -->
<g id="node3" class="node">
<title>2</title>
<path fill="none" stroke="#88d856" stroke-width="2" d="M383.5,-900C383.5,-900 314.5,-900 314.5,-900 308.5,-900 302.5,-894 302.5,-888 302.5,-888 302.5,-876 302.5,-876 302.5,-870 308.5,-864 314.5,-864 314.5,-864 383.5,-864 383.5,-864 389.5,-864 395.5,-870 395.5,-876 395.5,-876 395.5,-888 395.5,-888 395.5,-894 389.5,-900 383.5,-900"/>
<text text-anchor="middle" x="349" y="-879.5" font-family="sans" font-size="10.00">count_barcodes</text>
</g>
<!-- 2&#45;&gt;1 -->
<g id="edge5" class="edge">
<title>2&#45;&gt;1</title>
<path fill="none" stroke="grey" stroke-width="2" d="M330.07,-863.34C321.7,-855.52 311.67,-846.16 302.43,-837.53"/>
<polygon fill="grey" stroke="grey" stroke-width="2" points="305.09,-835.23 295.39,-830.97 300.32,-840.35 305.09,-835.23"/>
</g>
<!-- 2&#45;&gt;5 -->
<g id="edge11" class="edge">
<title>2&#45;&gt;5</title>
<path fill="none" stroke="grey" stroke-width="2" d="M349,-863.02C349,-839.54 349,-798.11 349,-769.64"/>
<polygon fill="grey" stroke="grey" stroke-width="2" points="352.5,-769.87 349,-759.87 345.5,-769.87 352.5,-769.87"/>
</g>
<!-- 3 -->
<g id="node4" class="node">
<title>3</title>
<path fill="none" stroke="#56d873" stroke-width="2" d="M472,-972C472,-972 376,-972 376,-972 370,-972 364,-966 364,-960 364,-960 364,-948 364,-948 364,-942 370,-936 376,-936 376,-936 472,-936 472,-936 478,-936 484,-942 484,-948 484,-948 484,-960 484,-960 484,-966 478,-972 472,-972"/>
<text text-anchor="middle" x="424" y="-951.5" font-family="sans" font-size="10.00">get_prebuilt_variants</text>
</g>
<!-- 3&#45;&gt;1 -->
<g id="edge6" class="edge">
<title>3&#45;&gt;1</title>
<path fill="none" stroke="grey" stroke-width="2" d="M363.05,-941.53C337.95,-933.82 310.67,-921.05 293,-900 279.5,-883.91 274.89,-860.54 273.59,-841.78"/>
<polygon fill="grey" stroke="grey" stroke-width="2" points="277.09,-841.72 273.25,-831.84 270.09,-841.96 277.09,-841.72"/>
</g>
<!-- 3&#45;&gt;2 -->
<g id="edge7" class="edge">
<title>3&#45;&gt;2</title>
<path fill="none" stroke="grey" stroke-width="2" d="M405.07,-935.34C396.7,-927.52 386.67,-918.16 377.43,-909.53"/>
<polygon fill="grey" stroke="grey" stroke-width="2" points="380.09,-907.23 370.39,-902.97 375.32,-912.35 380.09,-907.23"/>
</g>
<!-- 3&#45;&gt;5 -->
<g id="edge12" class="edge">
<title>3&#45;&gt;5</title>
<path fill="none" stroke="grey" stroke-width="2" d="M421.07,-935.33C417.82,-917.18 411.97,-888.22 404,-864 392.91,-830.28 375.98,-793.25 363.84,-768.32"/>
<polygon fill="grey" stroke="grey" stroke-width="2" points="367.05,-766.92 359.48,-759.5 360.77,-770.02 367.05,-766.92"/>
</g>
<!-- 7 -->
<g id="node8" class="node">
<title>7</title>
<path fill="none" stroke="#56a2d8" stroke-width="2" d="M1011.5,-900C1011.5,-900 928.5,-900 928.5,-900 922.5,-900 916.5,-894 916.5,-888 916.5,-888 916.5,-876 916.5,-876 916.5,-870 922.5,-864 928.5,-864 928.5,-864 1011.5,-864 1011.5,-864 1017.5,-864 1023.5,-870 1023.5,-876 1023.5,-876 1023.5,-888 1023.5,-888 1023.5,-894 1017.5,-900 1011.5,-900"/>
<text text-anchor="middle" x="970" y="-879.5" font-family="sans" font-size="10.00">translate_geneseq</text>
</g>
<!-- 3&#45;&gt;7 -->
<g id="edge14" class="edge">
<title>3&#45;&gt;7</title>
<path fill="none" stroke="grey" stroke-width="2" d="M484.78,-945.21C587.78,-932 795.84,-905.33 902.94,-891.6"/>
<polygon fill="grey" stroke="grey" stroke-width="2" points="903.32,-895.08 912.8,-890.33 902.43,-888.13 903.32,-895.08"/>
</g>
<!-- 3&#45;&gt;11 -->
<g id="edge23" class="edge">
<title>3&#45;&gt;11</title>
<path fill="none" stroke="grey" stroke-width="2" d="M484.8,-936.24C541.37,-916.51 617,-877.66 617,-811 617,-811 617,-811 617,-737 617,-697.84 607.31,-653.58 599.77,-625.04"/>
<polygon fill="grey" stroke="grey" stroke-width="2" points="603.21,-624.38 597.19,-615.66 596.46,-626.23 603.21,-624.38"/>
</g>
<!-- 3&#45;&gt;12 -->
<g id="edge35" class="edge">
<title>3&#45;&gt;12</title>
<path fill="none" stroke="grey" stroke-width="2" d="M363.25,-945.55C246.01,-929.46 0,-886.69 0,-811 0,-811 0,-811 0,-449 0,-302.84 8.24,-234.52 123,-144 168.85,-107.84 337.85,-96.22 425.1,-92.59"/>
<polygon fill="grey" stroke="grey" stroke-width="2" points="425.23,-96.08 435.09,-92.2 424.96,-89.09 425.23,-96.08"/>
</g>
<!-- 3&#45;&gt;19 -->
<g id="edge58" class="edge">
<title>3&#45;&gt;19</title>
<path fill="none" stroke="grey" stroke-width="2" d="M484.7,-947.53C564.04,-936.66 693,-904.6 693,-811 693,-811 693,-811 693,-737 693,-661.53 686.9,-634.32 639,-576 618.53,-551.08 592.19,-567.89 576,-540 567.97,-526.16 574.3,-519.91 576,-504 584.72,-422.61 605.72,-405.33 615,-324 618.63,-292.2 615.78,-284 616,-252 616.11,-236 616.75,-231.98 616,-216 615.66,-208.71 615.05,-200.87 614.37,-193.51"/>
<polygon fill="grey" stroke="grey" stroke-width="2" points="617.86,-193.25 613.38,-183.65 610.9,-193.95 617.86,-193.25"/>
</g>
<!-- 4 -->
<g id="node5" class="node">
<title>4</title>
<path fill="none" stroke="#56c1d8" stroke-width="2" d="M538.5,-684C538.5,-684 389.5,-684 389.5,-684 383.5,-684 377.5,-678 377.5,-672 377.5,-672 377.5,-660 377.5,-660 377.5,-654 383.5,-648 389.5,-648 389.5,-648 538.5,-648 538.5,-648 544.5,-648 550.5,-654 550.5,-660 550.5,-660 550.5,-672 550.5,-672 550.5,-678 544.5,-684 538.5,-684"/>
<text text-anchor="middle" x="464" y="-663.5" font-family="sans" font-size="10.00">check_adequate_variant_counts</text>
</g>
<!-- 4&#45;&gt;0 -->
<g id="edge1" class="edge">
<title>4&#45;&gt;0</title>
<path fill="none" stroke="grey" stroke-width="2" d="M434.89,-647.12C356.71,-596.88 145.08,-445.37 100,-252 89.1,-205.25 79.09,-187.21 100,-144 124.51,-93.36 180.6,-57 218.91,-36.98"/>
<polygon fill="grey" stroke="grey" stroke-width="2" points="220.12,-40.29 227.47,-32.65 216.96,-34.04 220.12,-40.29"/>
</g>
<!-- 4&#45;&gt;11 -->
<g id="edge22" class="edge">
<title>4&#45;&gt;11</title>
<path fill="none" stroke="grey" stroke-width="2" d="M496.38,-647.15C511.9,-638.6 530.72,-628.22 547.48,-618.99"/>
<polygon fill="grey" stroke="grey" stroke-width="2" points="548.96,-622.17 556.03,-614.27 545.58,-616.04 548.96,-622.17"/>
</g>
<!-- 5&#45;&gt;4 -->
<g id="edge8" class="edge">
<title>5&#45;&gt;4</title>
<path fill="none" stroke="grey" stroke-width="2" d="M378.32,-719.15C392.1,-710.76 408.76,-700.62 423.71,-691.52"/>
<polygon fill="grey" stroke="grey" stroke-width="2" points="425.43,-694.58 432.15,-686.39 421.79,-688.6 425.43,-694.58"/>
</g>
<!-- 5&#45;&gt;12 -->
<g id="edge26" class="edge">
<title>5&#45;&gt;12</title>
<path fill="none" stroke="grey" stroke-width="2" d="M333.87,-719.09C287.74,-662.58 152,-481.49 152,-307 152,-307 152,-307 152,-233 152,-115.32 332.76,-94.16 425.08,-91.03"/>
<polygon fill="grey" stroke="grey" stroke-width="2" points="425.1,-94.53 435,-90.77 424.91,-87.53 425.1,-94.53"/>
</g>
<!-- 16 -->
<g id="node17" class="node">
<title>16</title>
<path fill="none" stroke="#a7d856" stroke-width="2" d="M399.5,-324C399.5,-324 344.5,-324 344.5,-324 338.5,-324 332.5,-318 332.5,-312 332.5,-312 332.5,-300 332.5,-300 332.5,-294 338.5,-288 344.5,-288 344.5,-288 399.5,-288 399.5,-288 405.5,-288 411.5,-294 411.5,-300 411.5,-300 411.5,-312 411.5,-312 411.5,-318 405.5,-324 399.5,-324"/>
<text text-anchor="middle" x="372" y="-303.5" font-family="sans" font-size="10.00">make_nblink</text>
</g>
<!-- 5&#45;&gt;16 -->
<g id="edge43" class="edge">
<title>5&#45;&gt;16</title>
<path fill="none" stroke="grey" stroke-width="2" d="M343.03,-719.08C339.96,-708.92 336.54,-695.89 335,-684 332.94,-668.13 334.14,-663.98 335,-648 341.22,-532.95 359.18,-397.01 367.57,-337.49"/>
<polygon fill="grey" stroke="grey" stroke-width="2" points="371.02,-338.09 368.97,-327.69 364.09,-337.1 371.02,-338.09"/>
</g>
<!-- 5&#45;&gt;19 -->
<g id="edge50" class="edge">
<title>5&#45;&gt;19</title>
<path fill="none" stroke="grey" stroke-width="2" d="M350.38,-719.17C352.36,-700.64 357.07,-671.14 368,-648 420.43,-537.04 460.27,-525.29 540,-432 554.1,-415.5 563.52,-415.53 573,-396 605.43,-329.17 610.99,-240.17 611.47,-193.9"/>
<polygon fill="grey" stroke="grey" stroke-width="2" points="614.97,-194.01 611.48,-184.01 607.97,-194.01 614.97,-194.01"/>
</g>
<!-- 6 -->
<g id="node7" class="node">
<title>6</title>
<path fill="none" stroke="#70d856" stroke-width="2" d="M850.5,-828C850.5,-828 755.5,-828 755.5,-828 749.5,-828 743.5,-822 743.5,-816 743.5,-816 743.5,-804 743.5,-804 743.5,-798 749.5,-792 755.5,-792 755.5,-792 850.5,-792 850.5,-792 856.5,-792 862.5,-798 862.5,-804 862.5,-804 862.5,-816 862.5,-816 862.5,-822 856.5,-828 850.5,-828"/>
<text text-anchor="middle" x="803" y="-807.5" font-family="sans" font-size="10.00">site_numbering_map</text>
</g>
<!-- 6&#45;&gt;5 -->
<g id="edge9" class="edge">
<title>6&#45;&gt;5</title>
<path fill="none" stroke="grey" stroke-width="2" d="M742.71,-799.7C661.9,-787.24 518.27,-765.1 428.64,-751.28"/>
<polygon fill="grey" stroke="grey" stroke-width="2" points="429.23,-747.83 418.81,-749.76 428.16,-754.75 429.23,-747.83"/>
</g>
<!-- 8 -->
<g id="node9" class="node">
<title>8</title>
<path fill="none" stroke="#56d8d8" stroke-width="2" d="M806,-468C806,-468 708,-468 708,-468 702,-468 696,-462 696,-456 696,-456 696,-444 696,-444 696,-438 702,-432 708,-432 708,-432 806,-432 806,-432 812,-432 818,-438 818,-444 818,-444 818,-456 818,-456 818,-462 812,-468 806,-468"/>
<text text-anchor="middle" x="757" y="-447.5" font-family="sans" font-size="10.00">avg_antibody_escape</text>
</g>
<!-- 6&#45;&gt;8 -->
<g id="edge15" class="edge">
<title>6&#45;&gt;8</title>
<path fill="none" stroke="grey" stroke-width="2" d="M803,-791.07C803,-764.13 803,-711.62 803,-667 803,-667 803,-667 803,-593 803,-552.55 797.52,-542.12 784,-504 781.15,-495.95 777.32,-487.57 773.45,-479.92"/>
<polygon fill="grey" stroke="grey" stroke-width="2" points="776.65,-478.5 768.87,-471.31 770.47,-481.78 776.65,-478.5"/>
</g>
<!-- 10 -->
<g id="node11" class="node">
<title>10</title>
<path fill="none" stroke="#56d8a2" stroke-width="2" d="M763,-540C763,-540 705,-540 705,-540 699,-540 693,-534 693,-528 693,-528 693,-516 693,-516 693,-510 699,-504 705,-504 705,-504 763,-504 763,-504 769,-504 775,-510 775,-516 775,-516 775,-528 775,-528 775,-534 769,-540 763,-540"/>
<text text-anchor="middle" x="734" y="-519.5" font-family="sans" font-size="10.00">fit_polyclonal</text>
</g>
<!-- 6&#45;&gt;10 -->
<g id="edge18" class="edge">
<title>6&#45;&gt;10</title>
<path fill="none" stroke="grey" stroke-width="2" d="M798.22,-791.36C795.46,-781.07 791.96,-767.82 789,-756 770.86,-683.47 751.06,-597.82 740.88,-553.3"/>
<polygon fill="grey" stroke="grey" stroke-width="2" points="744.36,-552.79 738.72,-543.82 737.53,-554.35 744.36,-552.79"/>
</g>
<!-- 6&#45;&gt;11 -->
<g id="edge20" class="edge">
<title>6&#45;&gt;11</title>
<path fill="none" stroke="grey" stroke-width="2" d="M782.43,-791.24C770.93,-781.12 756.44,-768.09 744,-756 697.15,-710.45 645.28,-654.65 615.57,-622.13"/>
<polygon fill="grey" stroke="grey" stroke-width="2" points="618.45,-620.1 609.13,-615.07 613.27,-624.81 618.45,-620.1"/>
</g>
<!-- 6&#45;&gt;12 -->
<g id="edge36" class="edge">
<title>6&#45;&gt;12</title>
<path fill="none" stroke="grey" stroke-width="2" d="M863.34,-793.07C968.91,-761.13 1176,-678.66 1176,-523 1176,-523 1176,-523 1176,-233 1176,-162.61 1111.24,-167.8 1045,-144 997.27,-126.85 661.75,-103.14 530.48,-94.41"/>
<polygon fill="grey" stroke="grey" stroke-width="2" points="530.92,-90.93 520.71,-93.76 530.46,-97.91 530.92,-90.93"/>
</g>
<!-- 6&#45;&gt;19 -->
<g id="edge59" class="edge">
<title>6&#45;&gt;19</title>
<path fill="none" stroke="grey" stroke-width="2" d="M812.12,-791.14C824.74,-764.73 846,-713.36 846,-667 846,-667 846,-667 846,-521 846,-371.85 811.56,-321.38 706,-216 698.29,-208.3 678.24,-196.78 658.53,-186.44"/>
<polygon fill="grey" stroke="grey" stroke-width="2" points="660.25,-183.39 649.76,-181.92 657.04,-189.61 660.25,-183.39"/>
</g>
<!-- 7&#45;&gt;6 -->
<g id="edge13" class="edge">
<title>7&#45;&gt;6</title>
<path fill="none" stroke="grey" stroke-width="2" d="M927.43,-863.15C906.21,-854.26 880.31,-843.41 857.65,-833.91"/>
<polygon fill="grey" stroke="grey" stroke-width="2" points="859.15,-830.74 848.58,-830.1 856.45,-837.2 859.15,-830.74"/>
</g>
<!-- 7&#45;&gt;12 -->
<g id="edge30" class="edge">
<title>7&#45;&gt;12</title>
<path fill="none" stroke="grey" stroke-width="2" d="M1024.45,-873.73C1096.37,-860.72 1214,-826.12 1214,-739 1214,-739 1214,-739 1214,-233 1214,-172.84 1167.41,-167.45 1112,-144 1085.34,-132.72 677.06,-104.36 530.16,-94.47"/>
<polygon fill="grey" stroke="grey" stroke-width="2" points="530.82,-91.01 520.61,-93.83 530.35,-97.99 530.82,-91.01"/>
</g>
<!-- 7&#45;&gt;19 -->
<g id="edge54" class="edge">
<title>7&#45;&gt;19</title>
<path fill="none" stroke="grey" stroke-width="2" d="M1020.41,-863.04C1069.89,-841.8 1138,-801.25 1138,-739 1138,-739 1138,-739 1138,-521 1138,-465.02 785.46,-244.02 737,-216 735.12,-214.91 694.01,-197.67 659.26,-183.14"/>
<polygon fill="grey" stroke="grey" stroke-width="2" points="660.68,-179.94 650.1,-179.31 657.98,-186.4 660.68,-179.94"/>
</g>
<!-- 8&#45;&gt;0 -->
<g id="edge2" class="edge">
<title>8&#45;&gt;0</title>
<path fill="none" stroke="grey" stroke-width="2" d="M818.85,-434.66C882.69,-417.31 982.25,-382.84 1050,-324 1089.66,-289.56 1114.39,-265.91 1098,-216 1085.6,-178.25 1078.94,-164.66 1045,-144 916.79,-65.94 440.46,-30.4 298.3,-21.38"/>
<polygon fill="grey" stroke="grey" stroke-width="2" points="298.83,-17.91 288.63,-20.78 298.4,-24.9 298.83,-17.91"/>
</g>
<!-- 8&#45;&gt;12 -->
<g id="edge27" class="edge">
<title>8&#45;&gt;12</title>
<path fill="none" stroke="grey" stroke-width="2" d="M788.66,-431.1C806.47,-420.95 829.07,-407.92 849,-396 953.15,-333.7 1022,-358.05 1081,-252 1088.78,-238.02 1090.9,-228.57 1081,-216 1012.89,-129.54 664.28,-101.3 530.43,-93.55"/>
<polygon fill="grey" stroke="grey" stroke-width="2" points="530.99,-90.08 520.81,-93.02 530.6,-97.07 530.99,-90.08"/>
</g>
<!-- 14 -->
<g id="node15" class="node">
<title>14</title>
<path fill="none" stroke="#d6d856" stroke-width="2" d="M552,-396C552,-396 484,-396 484,-396 478,-396 472,-390 472,-384 472,-384 472,-372 472,-372 472,-366 478,-360 484,-360 484,-360 552,-360 552,-360 558,-360 564,-366 564,-372 564,-372 564,-384 564,-384 564,-390 558,-396 552,-396"/>
<text text-anchor="middle" x="518" y="-375.5" font-family="sans" font-size="10.00">compare_IC50s</text>
</g>
<!-- 8&#45;&gt;14 -->
<g id="edge39" class="edge">
<title>8&#45;&gt;14</title>
<path fill="none" stroke="grey" stroke-width="2" d="M695.76,-431.06C659.26,-420.37 613.17,-406.87 577.06,-396.3"/>
<polygon fill="grey" stroke="grey" stroke-width="2" points="578.23,-392.99 567.65,-393.54 576.26,-399.71 578.23,-392.99"/>
</g>
<!-- 8&#45;&gt;16 -->
<g id="edge44" class="edge">
<title>8&#45;&gt;16</title>
<path fill="none" stroke="grey" stroke-width="2" d="M695.29,-442.19C621.38,-433.3 502.58,-416.42 463,-396 434.74,-381.42 409.49,-355.1 392.8,-334.86"/>
<polygon fill="grey" stroke="grey" stroke-width="2" points="395.74,-332.93 386.77,-327.29 390.27,-337.29 395.74,-332.93"/>
</g>
<!-- 18 -->
<g id="node19" class="node">
<title>18</title>
<path fill="none" stroke="#568ad8" stroke-width="2" d="M1059.5,-252C1059.5,-252 922.5,-252 922.5,-252 916.5,-252 910.5,-246 910.5,-240 910.5,-240 910.5,-228 910.5,-228 910.5,-222 916.5,-216 922.5,-216 922.5,-216 1059.5,-216 1059.5,-216 1065.5,-216 1071.5,-222 1071.5,-228 1071.5,-228 1071.5,-240 1071.5,-240 1071.5,-246 1065.5,-252 1059.5,-252"/>
<text text-anchor="middle" x="991" y="-231.5" font-family="sans" font-size="10.00">format_antibody_escape_plot</text>
</g>
<!-- 8&#45;&gt;18 -->
<g id="edge47" class="edge">
<title>8&#45;&gt;18</title>
<path fill="none" stroke="grey" stroke-width="2" d="M776.55,-431.12C817.67,-393.52 913.31,-306.05 961.76,-261.74"/>
<polygon fill="grey" stroke="grey" stroke-width="2" points="964.09,-264.35 969.11,-255.02 959.37,-259.19 964.09,-264.35"/>
</g>
<!-- 8&#45;&gt;19 -->
<g id="edge51" class="edge">
<title>8&#45;&gt;19</title>
<path fill="none" stroke="grey" stroke-width="2" d="M755.02,-431.29C749.66,-390.02 731.79,-285.67 682,-216 674.42,-205.39 664.08,-196 653.63,-188.18"/>
<polygon fill="grey" stroke="grey" stroke-width="2" points="655.93,-185.52 645.73,-182.64 651.91,-191.25 655.93,-185.52"/>
</g>
<!-- 9 -->
<g id="node10" class="node">
<title>9</title>
<path fill="none" stroke="#59d856" stroke-width="2" d="M663,-540C663,-540 597,-540 597,-540 591,-540 585,-534 585,-528 585,-528 585,-516 585,-516 585,-510 591,-504 597,-504 597,-504 663,-504 663,-504 669,-504 675,-510 675,-516 675,-516 675,-528 675,-528 675,-534 669,-540 663,-540"/>
<text text-anchor="middle" x="630" y="-519.5" font-family="sans" font-size="10.00">get_muteffects</text>
</g>
<!-- 9&#45;&gt;8 -->
<g id="edge17" class="edge">
<title>9&#45;&gt;8</title>
<path fill="none" stroke="grey" stroke-width="2" d="M662.38,-503.15C677.9,-494.6 696.72,-484.22 713.48,-474.99"/>
<polygon fill="grey" stroke="grey" stroke-width="2" points="714.96,-478.17 722.03,-470.27 711.58,-472.04 714.96,-478.17"/>
</g>
<!-- 9&#45;&gt;14 -->
<g id="edge40" class="edge">
<title>9&#45;&gt;14</title>
<path fill="none" stroke="grey" stroke-width="2" d="M615.82,-503.02C596.71,-478.8 562.53,-435.45 540.05,-406.96"/>
<polygon fill="grey" stroke="grey" stroke-width="2" points="542.89,-404.9 533.94,-399.22 537.39,-409.23 542.89,-404.9"/>
</g>
<!-- 10&#45;&gt;8 -->
<g id="edge16" class="edge">
<title>10&#45;&gt;8</title>
<path fill="none" stroke="grey" stroke-width="2" d="M739.8,-503.34C742.02,-496.59 744.61,-488.69 747.11,-481.11"/>
<polygon fill="grey" stroke="grey" stroke-width="2" points="750.38,-482.37 750.17,-471.78 743.73,-480.19 750.38,-482.37"/>
</g>
<!-- 10&#45;&gt;12 -->
<g id="edge37" class="edge">
<title>10&#45;&gt;12</title>
<path fill="none" stroke="grey" stroke-width="2" d="M775.65,-508.96C887.1,-474.43 1178.36,-367.73 1098,-216 1071.34,-165.67 1045.5,-163.51 992,-144 908.09,-113.4 643.76,-98.34 530.43,-93.15"/>
<polygon fill="grey" stroke="grey" stroke-width="2" points="530.87,-89.67 520.72,-92.72 530.55,-96.66 530.87,-89.67"/>
</g>
<!-- 10&#45;&gt;16 -->
<g id="edge46" class="edge">
<title>10&#45;&gt;16</title>
<path fill="none" stroke="grey" stroke-width="2" d="M692.26,-506.71C610.26,-478.37 434.28,-416.04 413,-396 396.19,-380.18 385.68,-356.12 379.52,-337.01"/>
<polygon fill="grey" stroke="grey" stroke-width="2" points="382.94,-336.25 376.77,-327.64 376.22,-338.22 382.94,-336.25"/>
</g>
<!-- 10&#45;&gt;19 -->
<g id="edge60" class="edge">
<title>10&#45;&gt;19</title>
<path fill="none" stroke="grey" stroke-width="2" d="M713.94,-503.17C704.4,-493.64 693.66,-481.17 687,-468 668.76,-431.9 668,-419.45 668,-379 668,-379 668,-379 668,-305 668,-264.03 660.34,-253.57 644,-216 640.44,-207.81 635.76,-199.41 631.04,-191.78"/>
<polygon fill="grey" stroke="grey" stroke-width="2" points="634.02,-189.94 625.64,-183.45 628.15,-193.75 634.02,-189.94"/>
</g>
<!-- 11&#45;&gt;10 -->
<g id="edge19" class="edge">
<title>11&#45;&gt;10</title>
<path fill="none" stroke="grey" stroke-width="2" d="M627.45,-575.15C645.27,-566.43 666.95,-555.82 686.08,-546.46"/>
<polygon fill="grey" stroke="grey" stroke-width="2" points="687.45,-549.68 694.89,-542.14 684.37,-543.4 687.45,-549.68"/>
</g>
<!-- 13 -->
<g id="node14" class="node">
<title>13</title>
<path fill="none" stroke="#bed856" stroke-width="2" d="M290,-396C290,-396 192,-396 192,-396 186,-396 180,-390 180,-384 180,-384 180,-372 180,-372 180,-366 186,-360 192,-360 192,-360 290,-360 290,-360 296,-360 302,-366 302,-372 302,-372 302,-384 302,-384 302,-390 296,-396 290,-396"/>
<text text-anchor="middle" x="241" y="-375.5" font-family="sans" font-size="10.00">analyze_prob_escape</text>
</g>
<!-- 11&#45;&gt;13 -->
<g id="edge38" class="edge">
<title>11&#45;&gt;13</title>
<path fill="none" stroke="grey" stroke-width="2" d="M561.76,-575.12C499.22,-536.89 352.39,-447.11 281.16,-403.55"/>
<polygon fill="grey" stroke="grey" stroke-width="2" points="283.34,-400.79 272.98,-398.56 279.69,-406.76 283.34,-400.79"/>
</g>
<!-- 12&#45;&gt;0 -->
<g id="edge4" class="edge">
<title>12&#45;&gt;0</title>
<path fill="none" stroke="grey" stroke-width="2" d="M438.16,-76.32C398.47,-63.69 337.86,-44.41 298.09,-31.75"/>
<polygon fill="grey" stroke="grey" stroke-width="2" points="299.18,-28.43 288.59,-28.73 297.06,-35.1 299.18,-28.43"/>
</g>
<!-- 13&#45;&gt;12 -->
<g id="edge29" class="edge">
<title>13&#45;&gt;12</title>
<path fill="none" stroke="grey" stroke-width="2" d="M242.06,-359.14C245.63,-315.67 260.91,-203.57 325,-144 352.63,-118.32 393.33,-105 425.81,-98.14"/>
<polygon fill="grey" stroke="grey" stroke-width="2" points="426.13,-101.64 435.29,-96.31 424.81,-94.77 426.13,-101.64"/>
</g>
<!-- 13&#45;&gt;16 -->
<g id="edge45" class="edge">
<title>13&#45;&gt;16</title>
<path fill="none" stroke="grey" stroke-width="2" d="M274.4,-359.15C290.56,-350.52 310.2,-340.02 327.61,-330.72"/>
<polygon fill="grey" stroke="grey" stroke-width="2" points="328.83,-334.04 336,-326.24 325.53,-327.87 328.83,-334.04"/>
</g>
<!-- 13&#45;&gt;19 -->
<g id="edge53" class="edge">
<title>13&#45;&gt;19</title>
<path fill="none" stroke="grey" stroke-width="2" d="M254.79,-359.19C270.11,-340.13 296.24,-309.71 323,-288 329.07,-283.07 436.86,-219.2 444,-216 482.51,-198.71 528.34,-184.59 562.24,-175.29"/>
<polygon fill="grey" stroke="grey" stroke-width="2" points="562.94,-178.72 571.68,-172.74 561.12,-171.96 562.94,-178.72"/>
</g>
<!-- 14&#45;&gt;12 -->
<g id="edge24" class="edge">
<title>14&#45;&gt;12</title>
<path fill="none" stroke="grey" stroke-width="2" d="M515.5,-359.11C508.83,-311.46 490.6,-181.05 482.26,-121.45"/>
<polygon fill="grey" stroke="grey" stroke-width="2" points="485.77,-121.3 480.92,-111.88 478.84,-122.27 485.77,-121.3"/>
</g>
<!-- 14&#45;&gt;16 -->
<g id="edge42" class="edge">
<title>14&#45;&gt;16</title>
<path fill="none" stroke="grey" stroke-width="2" d="M480.78,-359.15C462.66,-350.47 440.63,-339.91 421.15,-330.56"/>
<polygon fill="grey" stroke="grey" stroke-width="2" points="422.67,-327.41 412.13,-326.24 419.64,-333.72 422.67,-327.41"/>
</g>
<!-- 14&#45;&gt;19 -->
<g id="edge48" class="edge">
<title>14&#45;&gt;19</title>
<path fill="none" stroke="grey" stroke-width="2" d="M523.36,-359.13C532.72,-328.89 553.4,-266.06 578,-216 582.05,-207.76 587.03,-199.18 591.88,-191.38"/>
<polygon fill="grey" stroke="grey" stroke-width="2" points="594.68,-193.49 597.14,-183.19 588.79,-189.71 594.68,-193.49"/>
</g>
<!-- 15 -->
<g id="node16" class="node">
<title>15</title>
<path fill="none" stroke="#56d88a" stroke-width="2" d="M361.5,-252C361.5,-252 324.5,-252 324.5,-252 318.5,-252 312.5,-246 312.5,-240 312.5,-240 312.5,-228 312.5,-228 312.5,-222 318.5,-216 324.5,-216 324.5,-216 361.5,-216 361.5,-216 367.5,-216 373.5,-222 373.5,-228 373.5,-228 373.5,-240 373.5,-240 373.5,-246 367.5,-252 361.5,-252"/>
<text text-anchor="middle" x="343" y="-231.5" font-family="sans" font-size="10.00">subindex</text>
</g>
<!-- 15&#45;&gt;12 -->
<g id="edge31" class="edge">
<title>15&#45;&gt;12</title>
<path fill="none" stroke="grey" stroke-width="2" d="M360.1,-215.02C383.33,-190.58 425.06,-146.69 452.13,-118.21"/>
<polygon fill="grey" stroke="grey" stroke-width="2" points="454.6,-120.69 458.96,-111.03 449.53,-115.87 454.6,-120.69"/>
</g>
<!-- 15&#45;&gt;19 -->
<g id="edge55" class="edge">
<title>15&#45;&gt;19</title>
<path fill="none" stroke="grey" stroke-width="2" d="M374.29,-220.59C378.86,-218.95 383.53,-217.37 388,-216 447.04,-197.91 516.45,-182.28 561.96,-172.77"/>
<polygon fill="grey" stroke="grey" stroke-width="2" points="562.65,-176.2 571.74,-170.75 561.23,-169.34 562.65,-176.2"/>
</g>
<!-- 16&#45;&gt;12 -->
<g id="edge32" class="edge">
<title>16&#45;&gt;12</title>
<path fill="none" stroke="grey" stroke-width="2" d="M336.71,-287.01C323.62,-278.35 310.21,-266.63 303,-252 295.93,-237.65 296.15,-230.46 303,-216 327.21,-164.91 384,-130.53 426.36,-110.96"/>
<polygon fill="grey" stroke="grey" stroke-width="2" points="427.68,-114.21 435.4,-106.95 424.84,-107.81 427.68,-114.21"/>
</g>
<!-- 16&#45;&gt;15 -->
<g id="edge41" class="edge">
<title>16&#45;&gt;15</title>
<path fill="none" stroke="grey" stroke-width="2" d="M364.68,-287.34C361.85,-280.51 358.54,-272.5 355.36,-264.83"/>
<polygon fill="grey" stroke="grey" stroke-width="2" points="358.64,-263.6 351.58,-255.7 352.17,-266.28 358.64,-263.6"/>
</g>
<!-- 16&#45;&gt;19 -->
<g id="edge56" class="edge">
<title>16&#45;&gt;19</title>
<path fill="none" stroke="grey" stroke-width="2" d="M395.74,-287.17C421.29,-268.36 463.45,-238.4 502,-216 521.59,-204.62 543.98,-193.44 563.35,-184.3"/>
<polygon fill="grey" stroke="grey" stroke-width="2" points="564.63,-187.56 572.22,-180.17 561.68,-181.21 564.63,-187.56"/>
</g>
<!-- 17 -->
<g id="node18" class="node">
<title>17</title>
<path fill="none" stroke="#d85656" stroke-width="2" d="M880,-252C880,-252 822,-252 822,-252 816,-252 810,-246 810,-240 810,-240 810,-228 810,-228 810,-222 816,-216 822,-216 822,-216 880,-216 880,-216 886,-216 892,-222 892,-228 892,-228 892,-240 892,-240 892,-246 886,-252 880,-252"/>
<text text-anchor="middle" x="851" y="-231.5" font-family="sans" font-size="10.00">make_graphs</text>
</g>
<!-- 17&#45;&gt;12 -->
<g id="edge25" class="edge">
<title>17&#45;&gt;12</title>
<path fill="none" stroke="grey" stroke-width="2" d="M815.69,-215.08C777.1,-195.93 713.14,-165.43 656,-144 614.28,-128.35 565.72,-114.15 529.88,-104.4"/>
<polygon fill="grey" stroke="grey" stroke-width="2" points="531.25,-101.14 520.68,-101.93 529.43,-107.9 531.25,-101.14"/>
</g>
<!-- 17&#45;&gt;19 -->
<g id="edge49" class="edge">
<title>17&#45;&gt;19</title>
<path fill="none" stroke="grey" stroke-width="2" d="M809.29,-220.01C804.8,-218.64 800.31,-217.28 796,-216 749.88,-202.27 697.1,-187.21 659.75,-176.67"/>
<polygon fill="grey" stroke="grey" stroke-width="2" points="660.71,-173.3 650.14,-173.96 658.81,-180.04 660.71,-173.3"/>
</g>
<!-- 18&#45;&gt;12 -->
<g id="edge34" class="edge">
<title>18&#45;&gt;12</title>
<path fill="none" stroke="grey" stroke-width="2" d="M938.81,-215.05C882.68,-196.09 790.61,-165.93 710,-144 648.78,-127.34 577.53,-111.6 530.31,-101.67"/>
<polygon fill="grey" stroke="grey" stroke-width="2" points="531.12,-98.26 520.62,-99.64 529.69,-105.11 531.12,-98.26"/>
</g>
<!-- 18&#45;&gt;19 -->
<g id="edge57" class="edge">
<title>18&#45;&gt;19</title>
<path fill="none" stroke="grey" stroke-width="2" d="M909.57,-217.6C906.68,-217.06 903.81,-216.52 901,-216 816.27,-200.26 717.54,-182.29 659.88,-171.84"/>
<polygon fill="grey" stroke="grey" stroke-width="2" points="660.62,-168.42 650.16,-170.08 659.38,-175.31 660.62,-168.42"/>
</g>
<!-- 19&#45;&gt;12 -->
<g id="edge33" class="edge">
<title>19&#45;&gt;12</title>
<path fill="none" stroke="grey" stroke-width="2" d="M577.09,-143.15C560.76,-134.56 540.93,-124.12 523.32,-114.85"/>
<polygon fill="grey" stroke="grey" stroke-width="2" points="525,-111.78 514.52,-110.22 521.74,-117.98 525,-111.78"/>
</g>
</g>
</svg>
