<?xml version="1.0" encoding="UTF-8" standalone="no"?>
<!DOCTYPE svg PUBLIC "-//W3C//DTD SVG 1.1//EN"
 "http://www.w3.org/Graphics/SVG/1.1/DTD/svg11.dtd">
<!-- Generated by graphviz version 7.1.0 (20230122.1345)
 -->
<!-- Title: snakemake_dag Pages: 1 -->
<svg width="1949pt" height="1196pt"
 viewBox="0.00 0.00 1949.00 1196.00" xmlns="http://www.w3.org/2000/svg" xmlns:xlink="http://www.w3.org/1999/xlink">
<g id="graph0" class="graph" transform="scale(1 1) rotate(0) translate(4 1192)">
<title>snakemake_dag</title>
<polygon fill="white" stroke="none" points="-4,4 -4,-1192 1945,-1192 1945,4 -4,4"/>
<!-- 0 -->
<g id="node1" class="node">
<title>0</title>
<path fill="none" stroke="#d85656" stroke-width="2" d="M1143,-36C1143,-36 1113,-36 1113,-36 1107,-36 1101,-30 1101,-24 1101,-24 1101,-12 1101,-12 1101,-6 1107,0 1113,0 1113,0 1143,0 1143,0 1149,0 1155,-6 1155,-12 1155,-12 1155,-24 1155,-24 1155,-30 1149,-36 1143,-36"/>
<text text-anchor="middle" x="1128" y="-15.5" font-family="sans" font-size="10.00">all</text>
</g>
<!-- 1 -->
<g id="node2" class="node">
<title>1</title>
<path fill="none" stroke="#d8c356" stroke-width="2" d="M1362.5,-828C1362.5,-828 1297.5,-828 1297.5,-828 1291.5,-828 1285.5,-822 1285.5,-816 1285.5,-816 1285.5,-804 1285.5,-804 1285.5,-798 1291.5,-792 1297.5,-792 1297.5,-792 1362.5,-792 1362.5,-792 1368.5,-792 1374.5,-798 1374.5,-804 1374.5,-804 1374.5,-816 1374.5,-816 1374.5,-822 1368.5,-828 1362.5,-828"/>
<text text-anchor="middle" x="1330" y="-807.5" font-family="sans" font-size="10.00">variant_counts</text>
</g>
<!-- 1&#45;&gt;0 -->
<g id="edge5" class="edge">
<title>1&#45;&gt;0</title>
<path fill="none" stroke="grey" stroke-width="2" d="M1344.01,-791.29C1351.74,-781.2 1361.31,-768.17 1369,-756 1398.11,-709.94 1396.92,-693.43 1427,-648 1500.65,-536.76 1758.71,-305.84 1803,-180 1808.31,-164.91 1813.23,-156.3 1803,-144 1721.12,-45.56 1301.16,-24.31 1168.33,-20.02"/>
<polygon fill="grey" stroke="grey" stroke-width="2" points="1168.81,-16.53 1158.71,-19.73 1168.6,-23.53 1168.81,-16.53"/>
</g>
<!-- 10 -->
<g id="node11" class="node">
<title>10</title>
<path fill="none" stroke="#568ad8" stroke-width="2" d="M1555,-756C1555,-756 1447,-756 1447,-756 1441,-756 1435,-750 1435,-744 1435,-744 1435,-732 1435,-732 1435,-726 1441,-720 1447,-720 1447,-720 1555,-720 1555,-720 1561,-720 1567,-726 1567,-732 1567,-732 1567,-744 1567,-744 1567,-750 1561,-756 1555,-756"/>
<text text-anchor="middle" x="1501" y="-735.5" font-family="sans" font-size="10.00">analyze_variant_counts</text>
</g>
<!-- 1&#45;&gt;10 -->
<g id="edge18" class="edge">
<title>1&#45;&gt;10</title>
<path fill="none" stroke="grey" stroke-width="2" d="M1373.59,-791.15C1395.42,-782.22 1422.08,-771.31 1445.37,-761.77"/>
<polygon fill="grey" stroke="grey" stroke-width="2" points="1446.46,-765.11 1454.39,-758.08 1443.81,-758.63 1446.46,-765.11"/>
</g>
<!-- 14 -->
<g id="node15" class="node">
<title>14</title>
<path fill="none" stroke="#78d856" stroke-width="2" d="M981,-756C981,-756 931,-756 931,-756 925,-756 919,-750 919,-744 919,-744 919,-732 919,-732 919,-726 925,-720 931,-720 931,-720 981,-720 981,-720 987,-720 993,-726 993,-732 993,-732 993,-744 993,-744 993,-750 987,-756 981,-756"/>
<text text-anchor="middle" x="956" y="-735.5" font-family="sans" font-size="10.00">func_scores</text>
</g>
<!-- 1&#45;&gt;14 -->
<g id="edge29" class="edge">
<title>1&#45;&gt;14</title>
<path fill="none" stroke="grey" stroke-width="2" d="M1284.51,-800.49C1214.18,-787.32 1079.52,-762.12 1006.34,-748.42"/>
<polygon fill="grey" stroke="grey" stroke-width="2" points="1007.3,-745.04 996.83,-746.64 1006.02,-751.92 1007.3,-745.04"/>
</g>
<!-- 16 -->
<g id="node17" class="node">
<title>16</title>
<path fill="none" stroke="#56d87b" stroke-width="2" d="M1153,-612C1153,-612 1099,-612 1099,-612 1093,-612 1087,-606 1087,-600 1087,-600 1087,-588 1087,-588 1087,-582 1093,-576 1099,-576 1099,-576 1153,-576 1153,-576 1159,-576 1165,-582 1165,-588 1165,-588 1165,-600 1165,-600 1165,-606 1159,-612 1153,-612"/>
<text text-anchor="middle" x="1126" y="-591.5" font-family="sans" font-size="10.00">prob_escape</text>
</g>
<!-- 1&#45;&gt;16 -->
<g id="edge39" class="edge">
<title>1&#45;&gt;16</title>
<path fill="none" stroke="grey" stroke-width="2" d="M1312.97,-791.36C1303.05,-781.06 1290.3,-767.81 1279,-756 1234.08,-709.02 1181.98,-654.11 1151.63,-622.08"/>
<polygon fill="grey" stroke="grey" stroke-width="2" points="1154.44,-619.95 1145.03,-615.1 1149.36,-624.77 1154.44,-619.95"/>
</g>
<!-- 17 -->
<g id="node18" class="node">
<title>17</title>
<path fill="none" stroke="#56d8a2" stroke-width="2" d="M1155,-108C1155,-108 1101,-108 1101,-108 1095,-108 1089,-102 1089,-96 1089,-96 1089,-84 1089,-84 1089,-78 1095,-72 1101,-72 1101,-72 1155,-72 1155,-72 1161,-72 1167,-78 1167,-84 1167,-84 1167,-96 1167,-96 1167,-102 1161,-108 1155,-108"/>
<text text-anchor="middle" x="1128" y="-87.5" font-family="sans" font-size="10.00">sphinx_build</text>
</g>
<!-- 1&#45;&gt;17 -->
<g id="edge45" class="edge">
<title>1&#45;&gt;17</title>
<path fill="none" stroke="grey" stroke-width="2" d="M1335.86,-791.19C1346.02,-761.05 1368.21,-698.36 1393,-648 1467.22,-497.21 1543.03,-485.94 1588,-324 1609.41,-246.92 1641.23,-203.72 1588,-144 1561.28,-114.02 1295.97,-98.55 1180.85,-93.2"/>
<polygon fill="grey" stroke="grey" stroke-width="2" points="1181.07,-89.71 1170.93,-92.75 1180.76,-96.7 1181.07,-89.71"/>
</g>
<!-- 27 -->
<g id="node28" class="node">
<title>27</title>
<path fill="none" stroke="#8fd856" stroke-width="2" d="M999.5,-180C999.5,-180 952.5,-180 952.5,-180 946.5,-180 940.5,-174 940.5,-168 940.5,-168 940.5,-156 940.5,-156 940.5,-150 946.5,-144 952.5,-144 952.5,-144 999.5,-144 999.5,-144 1005.5,-144 1011.5,-150 1011.5,-156 1011.5,-156 1011.5,-168 1011.5,-168 1011.5,-174 1005.5,-180 999.5,-180"/>
<text text-anchor="middle" x="976" y="-159.5" font-family="sans" font-size="10.00">docs_index</text>
</g>
<!-- 1&#45;&gt;27 -->
<g id="edge86" class="edge">
<title>1&#45;&gt;27</title>
<path fill="none" stroke="grey" stroke-width="2" d="M1322.15,-791.01C1311.29,-764.43 1293,-712.86 1293,-667 1293,-667 1293,-667 1293,-521 1293,-415.97 1521.22,-449.35 1466,-360 1447.19,-329.57 1425.76,-340.47 1394,-324 1333.98,-292.88 1313.37,-293.5 1260,-252 1242.87,-238.68 1245.85,-226.76 1227,-216 1163.34,-179.68 1077.81,-168.15 1024.83,-164.55"/>
<polygon fill="grey" stroke="grey" stroke-width="2" points="1025.31,-161.08 1015.12,-163.98 1024.89,-168.06 1025.31,-161.08"/>
</g>
<!-- 2 -->
<g id="node3" class="node">
<title>2</title>
<path fill="none" stroke="#56d8b1" stroke-width="2" d="M1364.5,-900C1364.5,-900 1295.5,-900 1295.5,-900 1289.5,-900 1283.5,-894 1283.5,-888 1283.5,-888 1283.5,-876 1283.5,-876 1283.5,-870 1289.5,-864 1295.5,-864 1295.5,-864 1364.5,-864 1364.5,-864 1370.5,-864 1376.5,-870 1376.5,-876 1376.5,-876 1376.5,-888 1376.5,-888 1376.5,-894 1370.5,-900 1364.5,-900"/>
<text text-anchor="middle" x="1330" y="-879.5" font-family="sans" font-size="10.00">count_barcodes</text>
</g>
<!-- 2&#45;&gt;1 -->
<g id="edge6" class="edge">
<title>2&#45;&gt;1</title>
<path fill="none" stroke="grey" stroke-width="2" d="M1330,-863.34C1330,-856.75 1330,-849.08 1330,-841.67"/>
<polygon fill="grey" stroke="grey" stroke-width="2" points="1333.5,-841.93 1330,-831.93 1326.5,-841.93 1333.5,-841.93"/>
</g>
<!-- 2&#45;&gt;10 -->
<g id="edge21" class="edge">
<title>2&#45;&gt;10</title>
<path fill="none" stroke="grey" stroke-width="2" d="M1348.86,-863.03C1368.43,-844.64 1400.15,-815.5 1429,-792 1440.52,-782.62 1453.49,-772.85 1465.21,-764.28"/>
<polygon fill="grey" stroke="grey" stroke-width="2" points="1467.05,-767.28 1473.1,-758.58 1462.95,-761.6 1467.05,-767.28"/>
</g>
<!-- 3 -->
<g id="node4" class="node">
<title>3</title>
<path fill="none" stroke="#566bd8" stroke-width="2" d="M1246,-972C1246,-972 1150,-972 1150,-972 1144,-972 1138,-966 1138,-960 1138,-960 1138,-948 1138,-948 1138,-942 1144,-936 1150,-936 1150,-936 1246,-936 1246,-936 1252,-936 1258,-942 1258,-948 1258,-948 1258,-960 1258,-960 1258,-966 1252,-972 1246,-972"/>
<text text-anchor="middle" x="1198" y="-951.5" font-family="sans" font-size="10.00">build_codon_variants</text>
</g>
<!-- 3&#45;&gt;1 -->
<g id="edge8" class="edge">
<title>3&#45;&gt;1</title>
<path fill="none" stroke="grey" stroke-width="2" d="M1212.59,-935.19C1227.75,-916.92 1252.37,-887.88 1275,-864 1283.28,-855.26 1292.61,-846.05 1301.2,-837.8"/>
<polygon fill="grey" stroke="grey" stroke-width="2" points="1303.46,-840.49 1308.3,-831.07 1298.64,-835.41 1303.46,-840.49"/>
</g>
<!-- 3&#45;&gt;2 -->
<g id="edge9" class="edge">
<title>3&#45;&gt;2</title>
<path fill="none" stroke="grey" stroke-width="2" d="M1231.65,-935.15C1247.86,-926.56 1267.54,-916.12 1285.02,-906.85"/>
<polygon fill="grey" stroke="grey" stroke-width="2" points="1286.54,-910.01 1293.74,-902.23 1283.26,-903.82 1286.54,-910.01"/>
</g>
<!-- 3&#45;&gt;10 -->
<g id="edge22" class="edge">
<title>3&#45;&gt;10</title>
<path fill="none" stroke="grey" stroke-width="2" d="M1258.76,-946.39C1297.94,-939.72 1348.41,-926.42 1386,-900 1398.96,-890.89 1452.98,-811.28 1482.14,-767.52"/>
<polygon fill="grey" stroke="grey" stroke-width="2" points="1485.02,-769.51 1487.64,-759.25 1479.19,-765.64 1485.02,-769.51"/>
</g>
<!-- 3&#45;&gt;14 -->
<g id="edge32" class="edge">
<title>3&#45;&gt;14</title>
<path fill="none" stroke="grey" stroke-width="2" d="M1150.1,-935.03C1130.08,-926.21 1107.28,-914.37 1089,-900 1040.23,-861.64 997.22,-802.61 974.07,-767.69"/>
<polygon fill="grey" stroke="grey" stroke-width="2" points="977.05,-765.85 968.66,-759.38 971.18,-769.67 977.05,-765.85"/>
</g>
<!-- 3&#45;&gt;16 -->
<g id="edge37" class="edge">
<title>3&#45;&gt;16</title>
<path fill="none" stroke="grey" stroke-width="2" d="M1185,-935.09C1178.27,-925.15 1170.36,-912.33 1165,-900 1148.66,-862.43 1141,-851.97 1141,-811 1141,-811 1141,-811 1141,-737 1141,-698.44 1135.46,-654.31 1131.12,-625.62"/>
<polygon fill="grey" stroke="grey" stroke-width="2" points="1134.59,-625.19 1129.58,-615.86 1127.68,-626.28 1134.59,-625.19"/>
</g>
<!-- 3&#45;&gt;17 -->
<g id="edge60" class="edge">
<title>3&#45;&gt;17</title>
<path fill="none" stroke="grey" stroke-width="2" d="M1204.62,-935.12C1219.45,-895.61 1257.08,-798.18 1296,-720 1404.62,-501.84 1570.59,-452.56 1512,-216 1503.3,-180.88 1503.48,-164.98 1474,-144 1427.89,-111.18 1265.67,-98.06 1180.74,-93.35"/>
<polygon fill="grey" stroke="grey" stroke-width="2" points="1181,-89.86 1170.83,-92.82 1180.63,-96.85 1181,-89.86"/>
</g>
<!-- 22 -->
<g id="node23" class="node">
<title>22</title>
<path fill="none" stroke="#567bd8" stroke-width="2" d="M1198.5,-324C1198.5,-324 1143.5,-324 1143.5,-324 1137.5,-324 1131.5,-318 1131.5,-312 1131.5,-312 1131.5,-300 1131.5,-300 1131.5,-294 1137.5,-288 1143.5,-288 1143.5,-288 1198.5,-288 1198.5,-288 1204.5,-288 1210.5,-294 1210.5,-300 1210.5,-300 1210.5,-312 1210.5,-312 1210.5,-318 1204.5,-324 1198.5,-324"/>
<text text-anchor="middle" x="1171" y="-303.5" font-family="sans" font-size="10.00">make_nblink</text>
</g>
<!-- 3&#45;&gt;22 -->
<g id="edge76" class="edge">
<title>3&#45;&gt;22</title>
<path fill="none" stroke="grey" stroke-width="2" d="M1194.06,-935.17C1188.5,-908.36 1179,-856.02 1179,-811 1179,-811 1179,-811 1179,-737 1179,-641.69 1193,-618.31 1193,-523 1193,-523 1193,-523 1193,-449 1193,-410.02 1184.8,-365.72 1178.42,-337.12"/>
<polygon fill="grey" stroke="grey" stroke-width="2" points="1181.91,-336.7 1176.24,-327.74 1175.09,-338.28 1181.91,-336.7"/>
</g>
<!-- 3&#45;&gt;27 -->
<g id="edge100" class="edge">
<title>3&#45;&gt;27</title>
<path fill="none" stroke="grey" stroke-width="2" d="M1176.23,-935.1C1165.7,-925.55 1153.52,-913.08 1145,-900 1065.68,-778.21 1027,-740.35 1027,-595 1027,-595 1027,-595 1027,-521 1027,-437.25 920.36,-472.37 886,-396 879.44,-381.41 878.57,-374.17 886,-360 899.05,-335.1 921.13,-346.49 938,-324 958.24,-297.02 954.02,-284.77 962,-252 966.67,-232.81 970.14,-210.91 972.46,-193.63"/>
<polygon fill="grey" stroke="grey" stroke-width="2" points="975.9,-194.27 973.69,-183.91 968.96,-193.39 975.9,-194.27"/>
</g>
<!-- 4 -->
<g id="node5" class="node">
<title>4</title>
<path fill="none" stroke="#56b1d8" stroke-width="2" d="M1735,-1044C1735,-1044 1625,-1044 1625,-1044 1619,-1044 1613,-1038 1613,-1032 1613,-1032 1613,-1020 1613,-1020 1613,-1014 1619,-1008 1625,-1008 1625,-1008 1735,-1008 1735,-1008 1741,-1008 1747,-1014 1747,-1020 1747,-1020 1747,-1032 1747,-1032 1747,-1038 1741,-1044 1735,-1044"/>
<text text-anchor="middle" x="1680" y="-1023.5" font-family="sans" font-size="10.00">build_pacbio_consensus</text>
</g>
<!-- 4&#45;&gt;3 -->
<g id="edge10" class="edge">
<title>4&#45;&gt;3</title>
<path fill="none" stroke="grey" stroke-width="2" d="M1612.22,-1015.16C1522.32,-1002.1 1364.25,-979.14 1271.54,-965.68"/>
<polygon fill="grey" stroke="grey" stroke-width="2" points="1272.3,-962.25 1261.9,-964.28 1271.3,-969.18 1272.3,-962.25"/>
</g>
<!-- 4&#45;&gt;17 -->
<g id="edge56" class="edge">
<title>4&#45;&gt;17</title>
<path fill="none" stroke="grey" stroke-width="2" d="M1720.56,-1007.13C1764.07,-984.88 1827,-942.43 1827,-883 1827,-883 1827,-883 1827,-449 1827,-299.28 1821.26,-203.79 1684,-144 1594.46,-104.99 1301.55,-94.56 1180.78,-91.88"/>
<polygon fill="grey" stroke="grey" stroke-width="2" points="1181.05,-88.39 1170.97,-91.67 1180.9,-95.38 1181.05,-88.39"/>
</g>
<!-- 4&#45;&gt;22 -->
<g id="edge72" class="edge">
<title>4&#45;&gt;22</title>
<path fill="none" stroke="grey" stroke-width="2" d="M1678.96,-1007.07C1677.5,-980.15 1675,-927.65 1675,-883 1675,-883 1675,-883 1675,-737 1675,-603.02 1501.86,-570.56 1293,-396 1274.65,-380.66 1271.99,-374.54 1253,-360 1240.07,-350.1 1225.29,-340.16 1211.87,-331.61"/>
<polygon fill="grey" stroke="grey" stroke-width="2" points="1213.89,-328.75 1203.56,-326.4 1210.17,-334.68 1213.89,-328.75"/>
</g>
<!-- 4&#45;&gt;27 -->
<g id="edge96" class="edge">
<title>4&#45;&gt;27</title>
<path fill="none" stroke="grey" stroke-width="2" d="M1696.55,-1007.12C1727.05,-972.24 1789,-891.47 1789,-811 1789,-811 1789,-811 1789,-593 1789,-468.13 1729.56,-437.94 1632,-360 1575.16,-314.59 1553.23,-313.25 1485,-288 1425.15,-265.85 1403.51,-279.67 1346,-252 1321.97,-240.44 1322.53,-226.47 1298,-216 1206.84,-177.1 1089.89,-166.62 1024.98,-163.88"/>
<polygon fill="grey" stroke="grey" stroke-width="2" points="1025.48,-160.39 1015.36,-163.52 1025.22,-167.39 1025.48,-160.39"/>
</g>
<!-- 5 -->
<g id="node6" class="node">
<title>5</title>
<path fill="none" stroke="#9fd856" stroke-width="2" d="M1887.5,-1116C1887.5,-1116 1798.5,-1116 1798.5,-1116 1792.5,-1116 1786.5,-1110 1786.5,-1104 1786.5,-1104 1786.5,-1092 1786.5,-1092 1786.5,-1086 1792.5,-1080 1798.5,-1080 1798.5,-1080 1887.5,-1080 1887.5,-1080 1893.5,-1080 1899.5,-1086 1899.5,-1092 1899.5,-1092 1899.5,-1104 1899.5,-1104 1899.5,-1110 1893.5,-1116 1887.5,-1116"/>
<text text-anchor="middle" x="1843" y="-1095.5" font-family="sans" font-size="10.00">analyze_pacbio_ccs</text>
</g>
<!-- 5&#45;&gt;4 -->
<g id="edge14" class="edge">
<title>5&#45;&gt;4</title>
<path fill="none" stroke="grey" stroke-width="2" d="M1801.45,-1079.15C1780.83,-1070.3 1755.69,-1059.51 1733.64,-1050.04"/>
<polygon fill="grey" stroke="grey" stroke-width="2" points="1735.11,-1046.86 1724.54,-1046.13 1732.35,-1053.29 1735.11,-1046.86"/>
</g>
<!-- 5&#45;&gt;17 -->
<g id="edge49" class="edge">
<title>5&#45;&gt;17</title>
<path fill="none" stroke="grey" stroke-width="2" d="M1866.22,-1079.09C1895.2,-1054.53 1941,-1007.42 1941,-955 1941,-955 1941,-955 1941,-305 1941,-201.9 1869.81,-182.08 1774,-144 1666.47,-101.26 1314.82,-92.99 1180.66,-91.38"/>
<polygon fill="grey" stroke="grey" stroke-width="2" points="1181.06,-87.89 1171.02,-91.28 1180.98,-94.89 1181.06,-87.89"/>
</g>
<!-- 5&#45;&gt;22 -->
<g id="edge71" class="edge">
<title>5&#45;&gt;22</title>
<path fill="none" stroke="grey" stroke-width="2" d="M1832.98,-1079.24C1809.13,-1035.26 1751,-917.14 1751,-811 1751,-811 1751,-811 1751,-593 1751,-384.81 1499.03,-511.79 1326,-396 1306.4,-382.88 1306.64,-373.07 1287,-360 1275.66,-352.46 1248.43,-339.92 1223.21,-328.94"/>
<polygon fill="grey" stroke="grey" stroke-width="2" points="1224.79,-325.81 1214.22,-325.06 1222.02,-332.24 1224.79,-325.81"/>
</g>
<!-- 5&#45;&gt;27 -->
<g id="edge90" class="edge">
<title>5&#45;&gt;27</title>
<path fill="none" stroke="grey" stroke-width="2" d="M1857.26,-1079.26C1864.62,-1069.36 1873.25,-1056.54 1879,-1044 1896.08,-1006.76 1903,-995.97 1903,-955 1903,-955 1903,-955 1903,-737 1903,-585.54 1849.43,-547.11 1751,-432 1719.26,-394.88 1707.69,-388.46 1668,-360 1616.52,-323.09 1604.02,-311 1545,-288 1474.66,-260.59 1446.8,-285.2 1379,-252 1356.61,-241.04 1358.74,-226.2 1336,-216 1281.42,-191.52 1110.6,-174.26 1025.38,-166.93"/>
<polygon fill="grey" stroke="grey" stroke-width="2" points="1025.74,-163.45 1015.48,-166.09 1025.15,-170.42 1025.74,-163.45"/>
</g>
<!-- 6 -->
<g id="node7" class="node">
<title>6</title>
<path fill="none" stroke="#56d88a" stroke-width="2" d="M1896.5,-1188C1896.5,-1188 1789.5,-1188 1789.5,-1188 1783.5,-1188 1777.5,-1182 1777.5,-1176 1777.5,-1176 1777.5,-1164 1777.5,-1164 1777.5,-1158 1783.5,-1152 1789.5,-1152 1789.5,-1152 1896.5,-1152 1896.5,-1152 1902.5,-1152 1908.5,-1158 1908.5,-1164 1908.5,-1164 1908.5,-1176 1908.5,-1176 1908.5,-1182 1902.5,-1188 1896.5,-1188"/>
<text text-anchor="middle" x="1843" y="-1167.5" font-family="sans" font-size="10.00">align_parse_PacBio_ccs</text>
</g>
<!-- 6&#45;&gt;5 -->
<g id="edge15" class="edge">
<title>6&#45;&gt;5</title>
<path fill="none" stroke="grey" stroke-width="2" d="M1843,-1151.34C1843,-1144.75 1843,-1137.08 1843,-1129.67"/>
<polygon fill="grey" stroke="grey" stroke-width="2" points="1846.5,-1129.93 1843,-1119.93 1839.5,-1129.93 1846.5,-1129.93"/>
</g>
<!-- 7 -->
<g id="node8" class="node">
<title>7</title>
<path fill="none" stroke="#56a2d8" stroke-width="2" d="M1232,-1116C1232,-1116 1164,-1116 1164,-1116 1158,-1116 1152,-1110 1152,-1104 1152,-1104 1152,-1092 1152,-1092 1152,-1086 1158,-1080 1164,-1080 1164,-1080 1232,-1080 1232,-1080 1238,-1080 1244,-1086 1244,-1092 1244,-1092 1244,-1104 1244,-1104 1244,-1110 1238,-1116 1232,-1116"/>
<text text-anchor="middle" x="1198" y="-1095.5" font-family="sans" font-size="10.00">gene_sequence</text>
</g>
<!-- 7&#45;&gt;1 -->
<g id="edge7" class="edge">
<title>7&#45;&gt;1</title>
<path fill="none" stroke="grey" stroke-width="2" d="M1225.15,-1079.18C1268.87,-1048.64 1353.3,-981.63 1386,-900 1391.95,-885.15 1392.33,-878.7 1386,-864 1381.71,-854.03 1374.52,-845.07 1366.71,-837.46"/>
<polygon fill="grey" stroke="grey" stroke-width="2" points="1369.09,-834.9 1359.27,-830.9 1364.45,-840.14 1369.09,-834.9"/>
</g>
<!-- 7&#45;&gt;3 -->
<g id="edge11" class="edge">
<title>7&#45;&gt;3</title>
<path fill="none" stroke="grey" stroke-width="2" d="M1198,-1079.02C1198,-1055.54 1198,-1014.11 1198,-985.64"/>
<polygon fill="grey" stroke="grey" stroke-width="2" points="1201.5,-985.87 1198,-975.87 1194.5,-985.87 1201.5,-985.87"/>
</g>
<!-- 7&#45;&gt;4 -->
<g id="edge13" class="edge">
<title>7&#45;&gt;4</title>
<path fill="none" stroke="grey" stroke-width="2" d="M1244.65,-1090.22C1326.78,-1078.3 1498.08,-1053.42 1599.6,-1038.68"/>
<polygon fill="grey" stroke="grey" stroke-width="2" points="1599.84,-1042.18 1609.23,-1037.28 1598.83,-1035.25 1599.84,-1042.18"/>
</g>
<!-- 8 -->
<g id="node9" class="node">
<title>8</title>
<path fill="none" stroke="#56c9d8" stroke-width="2" d="M952.5,-1044C952.5,-1044 857.5,-1044 857.5,-1044 851.5,-1044 845.5,-1038 845.5,-1032 845.5,-1032 845.5,-1020 845.5,-1020 845.5,-1014 851.5,-1008 857.5,-1008 857.5,-1008 952.5,-1008 952.5,-1008 958.5,-1008 964.5,-1014 964.5,-1020 964.5,-1020 964.5,-1032 964.5,-1032 964.5,-1038 958.5,-1044 952.5,-1044"/>
<text text-anchor="middle" x="905" y="-1023.5" font-family="sans" font-size="10.00">site_numbering_map</text>
</g>
<!-- 7&#45;&gt;8 -->
<g id="edge16" class="edge">
<title>7&#45;&gt;8</title>
<path fill="none" stroke="grey" stroke-width="2" d="M1151.25,-1085.83C1104.48,-1074.66 1031.89,-1057.32 977.62,-1044.35"/>
<polygon fill="grey" stroke="grey" stroke-width="2" points="978.78,-1041.03 968.24,-1042.11 977.15,-1047.84 978.78,-1041.03"/>
</g>
<!-- 7&#45;&gt;10 -->
<g id="edge20" class="edge">
<title>7&#45;&gt;10</title>
<path fill="none" stroke="grey" stroke-width="2" d="M1244.68,-1096.87C1333.7,-1093.92 1519,-1073.53 1519,-955 1519,-955 1519,-955 1519,-881 1519,-842.35 1512.35,-798.24 1507.14,-769.58"/>
<polygon fill="grey" stroke="grey" stroke-width="2" points="1510.59,-768.99 1505.29,-759.82 1503.71,-770.29 1510.59,-768.99"/>
</g>
<!-- 7&#45;&gt;14 -->
<g id="edge30" class="edge">
<title>7&#45;&gt;14</title>
<path fill="none" stroke="grey" stroke-width="2" d="M1151.33,-1097.38C1062.92,-1097 876.24,-1090.55 836,-1044 762.49,-958.94 873.92,-823.51 928.61,-766.12"/>
<polygon fill="grey" stroke="grey" stroke-width="2" points="930.93,-768.76 935.38,-759.14 925.91,-763.88 930.93,-768.76"/>
</g>
<!-- 7&#45;&gt;16 -->
<g id="edge38" class="edge">
<title>7&#45;&gt;16</title>
<path fill="none" stroke="grey" stroke-width="2" d="M1184.38,-1079.18C1167.57,-1055.98 1139.89,-1013.48 1129,-972 1096.16,-846.96 1112.21,-690.46 1121.26,-625.47"/>
<polygon fill="grey" stroke="grey" stroke-width="2" points="1124.7,-626.08 1122.68,-615.68 1117.78,-625.08 1124.7,-626.08"/>
</g>
<!-- 7&#45;&gt;17 -->
<g id="edge57" class="edge">
<title>7&#45;&gt;17</title>
<path fill="none" stroke="grey" stroke-width="2" d="M1244.63,-1096.04C1361.42,-1093.09 1663.74,-1081.9 1756,-1044 1813.85,-1020.24 1865,-1017.54 1865,-955 1865,-955 1865,-955 1865,-737 1865,-640.4 1903,-619.6 1903,-523 1903,-523 1903,-523 1903,-449 1903,-292.72 1870.91,-207.26 1728,-144 1630.57,-100.87 1308.04,-92.82 1180.53,-91.33"/>
<polygon fill="grey" stroke="grey" stroke-width="2" points="1180.81,-87.83 1170.78,-91.23 1180.74,-94.83 1180.81,-87.83"/>
</g>
<!-- 7&#45;&gt;27 -->
<g id="edge97" class="edge">
<title>7&#45;&gt;27</title>
<path fill="none" stroke="grey" stroke-width="2" d="M1151.07,-1095.4C952.3,-1088.03 190,-1053.36 190,-955 190,-955 190,-955 190,-737 190,-534.96 143.55,-452.39 261,-288 300.76,-232.35 331.45,-235.5 397,-216 495.85,-186.6 805.79,-170.37 926.86,-165.01"/>
<polygon fill="grey" stroke="grey" stroke-width="2" points="926.79,-168.52 936.63,-164.59 926.49,-161.52 926.79,-168.52"/>
</g>
<!-- 8&#45;&gt;3 -->
<g id="edge12" class="edge">
<title>8&#45;&gt;3</title>
<path fill="none" stroke="grey" stroke-width="2" d="M965.35,-1010.58C1011.59,-999.54 1075.57,-984.25 1124.74,-972.5"/>
<polygon fill="grey" stroke="grey" stroke-width="2" points="1125.36,-975.95 1134.28,-970.22 1123.74,-969.14 1125.36,-975.95"/>
</g>
<!-- 8&#45;&gt;10 -->
<g id="edge19" class="edge">
<title>8&#45;&gt;10</title>
<path fill="none" stroke="grey" stroke-width="2" d="M965.19,-1021.89C1038.07,-1016.84 1163.86,-1003.95 1267,-972 1336.49,-950.47 1358.16,-946.63 1414,-900 1455.7,-865.17 1480.51,-805.04 1492.39,-768.94"/>
<polygon fill="grey" stroke="grey" stroke-width="2" points="1495.63,-770.3 1495.28,-759.71 1488.95,-768.21 1495.63,-770.3"/>
</g>
<!-- 11 -->
<g id="node12" class="node">
<title>11</title>
<path fill="none" stroke="#d8a456" stroke-width="2" d="M563,-468C563,-468 465,-468 465,-468 459,-468 453,-462 453,-456 453,-456 453,-444 453,-444 453,-438 459,-432 465,-432 465,-432 563,-432 563,-432 569,-432 575,-438 575,-444 575,-444 575,-456 575,-456 575,-462 569,-468 563,-468"/>
<text text-anchor="middle" x="514" y="-447.5" font-family="sans" font-size="10.00">avg_antibody_escape</text>
</g>
<!-- 8&#45;&gt;11 -->
<g id="edge24" class="edge">
<title>8&#45;&gt;11</title>
<path fill="none" stroke="grey" stroke-width="2" d="M859.71,-1007.24C841.97,-998.61 822.45,-986.86 808,-972 645.17,-804.56 708.11,-691.61 569,-504 562.13,-494.74 553.58,-485.65 545.29,-477.69"/>
<polygon fill="grey" stroke="grey" stroke-width="2" points="547.73,-475.18 538.01,-470.97 542.98,-480.33 547.73,-475.18"/>
</g>
<!-- 13 -->
<g id="node14" class="node">
<title>13</title>
<path fill="none" stroke="#c6d856" stroke-width="2" d="M831.5,-612C831.5,-612 750.5,-612 750.5,-612 744.5,-612 738.5,-606 738.5,-600 738.5,-600 738.5,-588 738.5,-588 738.5,-582 744.5,-576 750.5,-576 750.5,-576 831.5,-576 831.5,-576 837.5,-576 843.5,-582 843.5,-588 843.5,-588 843.5,-600 843.5,-600 843.5,-606 837.5,-612 831.5,-612"/>
<text text-anchor="middle" x="791" y="-591.5" font-family="sans" font-size="10.00">fit_globalepistasis</text>
</g>
<!-- 8&#45;&gt;13 -->
<g id="edge28" class="edge">
<title>8&#45;&gt;13</title>
<path fill="none" stroke="grey" stroke-width="2" d="M878.34,-1007.06C846.07,-982.98 796,-936.92 796,-883 796,-883 796,-883 796,-737 796,-698.63 794.15,-654.46 792.71,-625.71"/>
<polygon fill="grey" stroke="grey" stroke-width="2" points="796.21,-625.75 792.19,-615.95 789.22,-626.12 796.21,-625.75"/>
</g>
<!-- 8&#45;&gt;14 -->
<g id="edge31" class="edge">
<title>8&#45;&gt;14</title>
<path fill="none" stroke="grey" stroke-width="2" d="M908.19,-1007.11C916.69,-959.46 939.94,-829.05 950.57,-769.45"/>
<polygon fill="grey" stroke="grey" stroke-width="2" points="953.97,-770.32 952.28,-759.86 947.08,-769.09 953.97,-770.32"/>
</g>
<!-- 15 -->
<g id="node16" class="node">
<title>15</title>
<path fill="none" stroke="#d87d56" stroke-width="2" d="M895,-540C895,-540 837,-540 837,-540 831,-540 825,-534 825,-528 825,-528 825,-516 825,-516 825,-510 831,-504 837,-504 837,-504 895,-504 895,-504 901,-504 907,-510 907,-516 907,-516 907,-528 907,-528 907,-534 901,-540 895,-540"/>
<text text-anchor="middle" x="866" y="-519.5" font-family="sans" font-size="10.00">fit_polyclonal</text>
</g>
<!-- 8&#45;&gt;15 -->
<g id="edge33" class="edge">
<title>8&#45;&gt;15</title>
<path fill="none" stroke="grey" stroke-width="2" d="M898.16,-1007.37C888.5,-980.83 872,-928.81 872,-883 872,-883 872,-883 872,-665 872,-626.62 869.78,-582.45 868.05,-553.71"/>
<polygon fill="grey" stroke="grey" stroke-width="2" points="871.55,-553.7 867.43,-543.94 864.57,-554.14 871.55,-553.7"/>
</g>
<!-- 8&#45;&gt;16 -->
<g id="edge36" class="edge">
<title>8&#45;&gt;16</title>
<path fill="none" stroke="grey" stroke-width="2" d="M914.09,-1007.38C919.37,-997.09 926.12,-983.84 932,-972 1003.21,-828.7 1008.06,-786.03 1089,-648 1093.86,-639.71 1099.61,-631.03 1105.11,-623.16"/>
<polygon fill="grey" stroke="grey" stroke-width="2" points="1107.87,-625.32 1110.84,-615.15 1102.18,-621.25 1107.87,-625.32"/>
</g>
<!-- 8&#45;&gt;17 -->
<g id="edge55" class="edge">
<title>8&#45;&gt;17</title>
<path fill="none" stroke="grey" stroke-width="2" d="M844.72,-1011.49C648.11,-963.5 38,-782.11 38,-379 38,-379 38,-379 38,-233 38,-170.46 88.68,-166.58 147,-144 233.65,-110.46 883.49,-95.62 1075.03,-91.94"/>
<polygon fill="grey" stroke="grey" stroke-width="2" points="1075.05,-95.44 1084.98,-91.76 1074.92,-88.45 1075.05,-95.44"/>
</g>
<!-- 8&#45;&gt;27 -->
<g id="edge95" class="edge">
<title>8&#45;&gt;27</title>
<path fill="none" stroke="grey" stroke-width="2" d="M844.64,-1023.68C698.01,-1019.92 331.94,-1007.09 290,-972 258.58,-945.71 266,-923.97 266,-883 266,-883 266,-883 266,-377 266,-336.55 255.18,-315.33 285,-288 333.04,-243.98 512.41,-266.2 576,-252 626.2,-240.79 636.14,-228.65 686,-216 769.76,-194.74 869.19,-178.47 927.18,-169.85"/>
<polygon fill="grey" stroke="grey" stroke-width="2" points="927.57,-173.34 936.95,-168.42 926.55,-166.41 927.57,-173.34"/>
</g>
<!-- 9 -->
<g id="node10" class="node">
<title>9</title>
<path fill="none" stroke="#56d8d8" stroke-width="2" d="M1596.5,-684C1596.5,-684 1447.5,-684 1447.5,-684 1441.5,-684 1435.5,-678 1435.5,-672 1435.5,-672 1435.5,-660 1435.5,-660 1435.5,-654 1441.5,-648 1447.5,-648 1447.5,-648 1596.5,-648 1596.5,-648 1602.5,-648 1608.5,-654 1608.5,-660 1608.5,-660 1608.5,-672 1608.5,-672 1608.5,-678 1602.5,-684 1596.5,-684"/>
<text text-anchor="middle" x="1522" y="-663.5" font-family="sans" font-size="10.00">check_adequate_variant_counts</text>
</g>
<!-- 9&#45;&gt;0 -->
<g id="edge1" class="edge">
<title>9&#45;&gt;0</title>
<path fill="none" stroke="grey" stroke-width="2" d="M1565.03,-647.19C1610.28,-625.26 1675,-583.34 1675,-523 1675,-523 1675,-523 1675,-449 1675,-356.64 1781.12,-394.31 1841,-324 1914.44,-237.77 1956.22,-154.86 1879,-72 1830.34,-19.78 1317.97,-18.09 1168.63,-18.72"/>
<polygon fill="grey" stroke="grey" stroke-width="2" points="1168.74,-15.21 1158.76,-18.76 1168.78,-22.21 1168.74,-15.21"/>
</g>
<!-- 9&#45;&gt;16 -->
<g id="edge35" class="edge">
<title>9&#45;&gt;16</title>
<path fill="none" stroke="grey" stroke-width="2" d="M1434.61,-649.55C1356.3,-635.71 1244,-615.86 1178.67,-604.31"/>
<polygon fill="grey" stroke="grey" stroke-width="2" points="1179.3,-600.87 1168.85,-602.57 1178.09,-607.76 1179.3,-600.87"/>
</g>
<!-- 10&#45;&gt;9 -->
<g id="edge17" class="edge">
<title>10&#45;&gt;9</title>
<path fill="none" stroke="grey" stroke-width="2" d="M1506.3,-719.34C1508.32,-712.59 1510.69,-704.69 1512.97,-697.11"/>
<polygon fill="grey" stroke="grey" stroke-width="2" points="1516.24,-698.39 1515.76,-687.8 1509.53,-696.37 1516.24,-698.39"/>
</g>
<!-- 10&#45;&gt;17 -->
<g id="edge58" class="edge">
<title>10&#45;&gt;17</title>
<path fill="none" stroke="grey" stroke-width="2" d="M1567.88,-720.63C1592.29,-712.41 1619.03,-700.57 1640,-684 1777.04,-575.7 1751,-481.67 1751,-307 1751,-307 1751,-307 1751,-233 1751,-116.43 1331.15,-95.55 1180.78,-91.82"/>
<polygon fill="grey" stroke="grey" stroke-width="2" points="1181.02,-88.32 1170.95,-91.59 1180.86,-95.32 1181.02,-88.32"/>
</g>
<!-- 10&#45;&gt;22 -->
<g id="edge73" class="edge">
<title>10&#45;&gt;22</title>
<path fill="none" stroke="grey" stroke-width="2" d="M1449.53,-719.02C1399.5,-697.86 1331,-657.49 1331,-595 1331,-595 1331,-595 1331,-521 1331,-477.15 1243.74,-381.36 1198.1,-334.25"/>
<polygon fill="grey" stroke="grey" stroke-width="2" points="1200.65,-331.85 1191.16,-327.14 1195.64,-336.74 1200.65,-331.85"/>
</g>
<!-- 10&#45;&gt;27 -->
<g id="edge98" class="edge">
<title>10&#45;&gt;27</title>
<path fill="none" stroke="grey" stroke-width="2" d="M1567.99,-719.16C1586.61,-711.2 1605.2,-699.89 1618,-684 1643.37,-652.5 1637,-635.45 1637,-595 1637,-595 1637,-595 1637,-449 1637,-278.57 1455.17,-337.95 1308,-252 1284.97,-238.55 1284.41,-226.73 1260,-216 1182.25,-181.84 1083.12,-169.68 1024.9,-165.36"/>
<polygon fill="grey" stroke="grey" stroke-width="2" points="1025.3,-161.88 1015.09,-164.7 1024.82,-168.87 1025.3,-161.88"/>
</g>
<!-- 11&#45;&gt;0 -->
<g id="edge4" class="edge">
<title>11&#45;&gt;0</title>
<path fill="none" stroke="grey" stroke-width="2" d="M452.19,-438.91C325.6,-415.31 55.06,-348.26 133,-216 232.61,-46.97 912.67,-22.94 1087.23,-19.55"/>
<polygon fill="grey" stroke="grey" stroke-width="2" points="1087.09,-23.05 1097.03,-19.38 1086.97,-16.06 1087.09,-23.05"/>
</g>
<!-- 11&#45;&gt;17 -->
<g id="edge43" class="edge">
<title>11&#45;&gt;17</title>
<path fill="none" stroke="grey" stroke-width="2" d="M507.57,-431.48C495.8,-400.7 468.76,-335.66 434,-288 420.48,-269.46 405.93,-273.14 397,-252 390.78,-237.26 388.81,-229.75 397,-216 466.63,-99.12 919.49,-90.03 1075.38,-90.41"/>
<polygon fill="grey" stroke="grey" stroke-width="2" points="1075.19,-93.91 1085.21,-90.46 1075.22,-86.91 1075.19,-93.91"/>
</g>
<!-- 20 -->
<g id="node21" class="node">
<title>20</title>
<path fill="none" stroke="#d6d856" stroke-width="2" d="M637,-396C637,-396 569,-396 569,-396 563,-396 557,-390 557,-384 557,-384 557,-372 557,-372 557,-366 563,-360 569,-360 569,-360 637,-360 637,-360 643,-360 649,-366 649,-372 649,-372 649,-384 649,-384 649,-390 643,-396 637,-396"/>
<text text-anchor="middle" x="603" y="-375.5" font-family="sans" font-size="10.00">compare_IC50s</text>
</g>
<!-- 11&#45;&gt;20 -->
<g id="edge64" class="edge">
<title>11&#45;&gt;20</title>
<path fill="none" stroke="grey" stroke-width="2" d="M536.46,-431.34C546.71,-423.27 559.05,-413.57 570.3,-404.72"/>
<polygon fill="grey" stroke="grey" stroke-width="2" points="572.16,-407.71 577.86,-398.77 567.84,-402.2 572.16,-407.71"/>
</g>
<!-- 11&#45;&gt;22 -->
<g id="edge74" class="edge">
<title>11&#45;&gt;22</title>
<path fill="none" stroke="grey" stroke-width="2" d="M575.93,-447.05C693.19,-442.61 943,-429.45 1022,-396 1044.95,-386.28 1044.16,-373.67 1065,-360 1081.86,-348.95 1101.34,-338.59 1118.96,-330.02"/>
<polygon fill="grey" stroke="grey" stroke-width="2" points="1120.26,-333.28 1127.79,-325.82 1117.25,-326.96 1120.26,-333.28"/>
</g>
<!-- 25 -->
<g id="node26" class="node">
<title>25</title>
<path fill="none" stroke="#59d856" stroke-width="2" d="M555.5,-252C555.5,-252 418.5,-252 418.5,-252 412.5,-252 406.5,-246 406.5,-240 406.5,-240 406.5,-228 406.5,-228 406.5,-222 412.5,-216 418.5,-216 418.5,-216 555.5,-216 555.5,-216 561.5,-216 567.5,-222 567.5,-228 567.5,-228 567.5,-240 567.5,-240 567.5,-246 561.5,-252 555.5,-252"/>
<text text-anchor="middle" x="487" y="-231.5" font-family="sans" font-size="10.00">format_antibody_escape_plot</text>
</g>
<!-- 11&#45;&gt;25 -->
<g id="edge78" class="edge">
<title>11&#45;&gt;25</title>
<path fill="none" stroke="grey" stroke-width="2" d="M511.74,-431.12C507.14,-394.62 496.61,-311.13 490.88,-265.74"/>
<polygon fill="grey" stroke="grey" stroke-width="2" points="494.37,-265.46 489.65,-255.98 487.43,-266.34 494.37,-265.46"/>
</g>
<!-- 26 -->
<g id="node27" class="node">
<title>26</title>
<path fill="none" stroke="#68d856" stroke-width="2" d="M413.5,-324C413.5,-324 306.5,-324 306.5,-324 300.5,-324 294.5,-318 294.5,-312 294.5,-312 294.5,-300 294.5,-300 294.5,-294 300.5,-288 306.5,-288 306.5,-288 413.5,-288 413.5,-288 419.5,-288 425.5,-294 425.5,-300 425.5,-300 425.5,-312 425.5,-312 425.5,-318 419.5,-324 413.5,-324"/>
<text text-anchor="middle" x="360" y="-303.5" font-family="sans" font-size="10.00">compare_escape_maps</text>
</g>
<!-- 11&#45;&gt;26 -->
<g id="edge80" class="edge">
<title>11&#45;&gt;26</title>
<path fill="none" stroke="grey" stroke-width="2" d="M485.42,-431.06C470.92,-421.41 453.38,-408.87 439,-396 418.02,-377.23 397,-353.22 381.91,-334.88"/>
<polygon fill="grey" stroke="grey" stroke-width="2" points="384.68,-332.74 375.67,-327.16 379.24,-337.14 384.68,-332.74"/>
</g>
<!-- 11&#45;&gt;27 -->
<g id="edge84" class="edge">
<title>11&#45;&gt;27</title>
<path fill="none" stroke="grey" stroke-width="2" d="M517.05,-431.07C521.16,-411.62 530.11,-380.61 548,-360 612.95,-285.19 657.75,-302.47 743,-252 768.78,-236.74 772.74,-228.43 800,-216 841.24,-197.19 890.91,-182.94 926.95,-173.97"/>
<polygon fill="grey" stroke="grey" stroke-width="2" points="927.73,-177.38 936.63,-171.63 926.08,-170.58 927.73,-177.38"/>
</g>
<!-- 12 -->
<g id="node13" class="node">
<title>12</title>
<path fill="none" stroke="#b6d856" stroke-width="2" d="M548,-540C548,-540 480,-540 480,-540 474,-540 468,-534 468,-528 468,-528 468,-516 468,-516 468,-510 474,-504 480,-504 480,-504 548,-504 548,-504 554,-504 560,-510 560,-516 560,-516 560,-528 560,-528 560,-534 554,-540 548,-540"/>
<text text-anchor="middle" x="514" y="-519.5" font-family="sans" font-size="10.00">avg_muteffects</text>
</g>
<!-- 12&#45;&gt;0 -->
<g id="edge2" class="edge">
<title>12&#45;&gt;0</title>
<path fill="none" stroke="grey" stroke-width="2" d="M467.2,-518.56C383.1,-513.45 210.47,-499.37 160,-468 119.72,-442.96 0,-304.34 0,-235 0,-235 0,-235 0,-161 0,-49.09 885.27,-24.02 1087.29,-19.75"/>
<polygon fill="grey" stroke="grey" stroke-width="2" points="1087.16,-23.26 1097.09,-19.55 1087.02,-16.26 1087.16,-23.26"/>
</g>
<!-- 12&#45;&gt;11 -->
<g id="edge23" class="edge">
<title>12&#45;&gt;11</title>
<path fill="none" stroke="grey" stroke-width="2" d="M514,-503.34C514,-496.75 514,-489.08 514,-481.67"/>
<polygon fill="grey" stroke="grey" stroke-width="2" points="517.5,-481.93 514,-471.93 510.5,-481.93 517.5,-481.93"/>
</g>
<!-- 12&#45;&gt;17 -->
<g id="edge48" class="edge">
<title>12&#45;&gt;17</title>
<path fill="none" stroke="grey" stroke-width="2" d="M467.33,-514.53C361.82,-498.59 114,-453.24 114,-379 114,-379 114,-379 114,-233 114,-196.27 11.68,-217.22 263,-144 416.58,-99.25 911.85,-92.28 1075.19,-91.2"/>
<polygon fill="grey" stroke="grey" stroke-width="2" points="1075.16,-94.7 1085.14,-91.14 1075.12,-87.7 1075.16,-94.7"/>
</g>
<!-- 12&#45;&gt;20 -->
<g id="edge63" class="edge">
<title>12&#45;&gt;20</title>
<path fill="none" stroke="grey" stroke-width="2" d="M546.83,-503.23C560.29,-494.35 574.84,-482.41 584,-468 595.08,-450.58 599.8,-427.75 601.77,-409.58"/>
<polygon fill="grey" stroke="grey" stroke-width="2" points="605.24,-410.02 602.55,-399.77 598.26,-409.46 605.24,-410.02"/>
</g>
<!-- 12&#45;&gt;22 -->
<g id="edge69" class="edge">
<title>12&#45;&gt;22</title>
<path fill="none" stroke="grey" stroke-width="2" d="M560.96,-510.97C688.98,-483.51 1035.99,-408.39 1058,-396 1077.45,-385.05 1075.91,-374.34 1093,-360 1104.83,-350.07 1118.54,-340.26 1131.13,-331.83"/>
<polygon fill="grey" stroke="grey" stroke-width="2" points="1132.86,-334.88 1139.31,-326.47 1129.02,-329.03 1132.86,-334.88"/>
</g>
<!-- 23 -->
<g id="node24" class="node">
<title>23</title>
<path fill="none" stroke="#d86656" stroke-width="2" d="M261.5,-252C261.5,-252 154.5,-252 154.5,-252 148.5,-252 142.5,-246 142.5,-240 142.5,-240 142.5,-228 142.5,-228 142.5,-222 148.5,-216 154.5,-216 154.5,-216 261.5,-216 261.5,-216 267.5,-216 273.5,-222 273.5,-228 273.5,-228 273.5,-240 273.5,-240 273.5,-246 267.5,-252 261.5,-252"/>
<text text-anchor="middle" x="208" y="-231.5" font-family="sans" font-size="10.00">format_muteffects_plot</text>
</g>
<!-- 12&#45;&gt;23 -->
<g id="edge77" class="edge">
<title>12&#45;&gt;23</title>
<path fill="none" stroke="grey" stroke-width="2" d="M473.05,-503.05C454.43,-493.92 432.66,-481.82 415,-468 335.31,-405.64 261.59,-310.05 227.64,-263.06"/>
<polygon fill="grey" stroke="grey" stroke-width="2" points="230.68,-261.3 222.02,-255.2 224.99,-265.37 230.68,-261.3"/>
</g>
<!-- 12&#45;&gt;26 -->
<g id="edge79" class="edge">
<title>12&#45;&gt;26</title>
<path fill="none" stroke="grey" stroke-width="2" d="M485.37,-503.08C471.81,-493.7 456,-481.4 444,-468 408.65,-428.54 383.52,-371.52 370.42,-336.99"/>
<polygon fill="grey" stroke="grey" stroke-width="2" points="373.77,-335.96 367.03,-327.78 367.2,-338.37 373.77,-335.96"/>
</g>
<!-- 12&#45;&gt;27 -->
<g id="edge89" class="edge">
<title>12&#45;&gt;27</title>
<path fill="none" stroke="grey" stroke-width="2" d="M548.31,-503.19C565.81,-493.57 587.11,-481.02 605,-468 740.63,-369.28 750.61,-315.05 886,-216 900.11,-205.68 916.36,-195.61 931.13,-187.07"/>
<polygon fill="grey" stroke="grey" stroke-width="2" points="932.48,-190.33 939.45,-182.36 929.03,-184.24 932.48,-190.33"/>
</g>
<!-- 13&#45;&gt;12 -->
<g id="edge26" class="edge">
<title>13&#45;&gt;12</title>
<path fill="none" stroke="grey" stroke-width="2" d="M737.59,-579.5C690.54,-567.61 622.11,-550.32 573.36,-538"/>
<polygon fill="grey" stroke="grey" stroke-width="2" points="574.28,-534.62 563.73,-535.57 572.57,-541.41 574.28,-534.62"/>
</g>
<!-- 13&#45;&gt;17 -->
<g id="edge47" class="edge">
<title>13&#45;&gt;17</title>
<path fill="none" stroke="grey" stroke-width="2" d="M786.37,-575.35C769.16,-505.25 716.91,-245.47 858,-144 892.16,-119.44 1007.14,-103.58 1075.55,-96.08"/>
<polygon fill="grey" stroke="grey" stroke-width="2" points="1075.58,-99.6 1085.15,-95.06 1074.84,-92.64 1075.58,-99.6"/>
</g>
<!-- 13&#45;&gt;22 -->
<g id="edge68" class="edge">
<title>13&#45;&gt;22</title>
<path fill="none" stroke="grey" stroke-width="2" d="M842.36,-575.05C914.96,-547.27 1047.59,-487.35 1127,-396 1141.99,-378.75 1153.26,-355.49 1160.64,-337.07"/>
<polygon fill="grey" stroke="grey" stroke-width="2" points="1163.89,-338.38 1164.15,-327.79 1157.34,-335.9 1163.89,-338.38"/>
</g>
<!-- 13&#45;&gt;27 -->
<g id="edge88" class="edge">
<title>13&#45;&gt;27</title>
<path fill="none" stroke="grey" stroke-width="2" d="M792.12,-575.02C795.14,-534.9 805.56,-435.66 838,-360 866.58,-293.35 919.89,-226.46 951.23,-190.34"/>
<polygon fill="grey" stroke="grey" stroke-width="2" points="953.47,-193.09 957.45,-183.26 948.22,-188.46 953.47,-193.09"/>
</g>
<!-- 14&#45;&gt;13 -->
<g id="edge27" class="edge">
<title>14&#45;&gt;13</title>
<path fill="none" stroke="grey" stroke-width="2" d="M935.1,-719.02C906.34,-694.26 854.37,-649.53 821.33,-621.1"/>
<polygon fill="grey" stroke="grey" stroke-width="2" points="823.88,-618.68 814.02,-614.81 819.32,-623.99 823.88,-618.68"/>
</g>
<!-- 18 -->
<g id="node19" class="node">
<title>18</title>
<path fill="none" stroke="#d8b456" stroke-width="2" d="M1001,-396C1001,-396 907,-396 907,-396 901,-396 895,-390 895,-384 895,-384 895,-372 895,-372 895,-366 901,-360 907,-360 907,-360 1001,-360 1001,-360 1007,-360 1013,-366 1013,-372 1013,-372 1013,-384 1013,-384 1013,-390 1007,-396 1001,-396"/>
<text text-anchor="middle" x="954" y="-375.5" font-family="sans" font-size="10.00">analyze_func_scores</text>
</g>
<!-- 14&#45;&gt;18 -->
<g id="edge61" class="edge">
<title>14&#45;&gt;18</title>
<path fill="none" stroke="grey" stroke-width="2" d="M955.9,-719.25C955.58,-662.11 954.58,-482.47 954.17,-409.88"/>
<polygon fill="grey" stroke="grey" stroke-width="2" points="957.67,-409.87 954.12,-399.89 950.67,-409.91 957.67,-409.87"/>
</g>
<!-- 15&#45;&gt;11 -->
<g id="edge25" class="edge">
<title>15&#45;&gt;11</title>
<path fill="none" stroke="grey" stroke-width="2" d="M824.24,-512.7C766.17,-501.15 660.11,-480.06 588.35,-465.79"/>
<polygon fill="grey" stroke="grey" stroke-width="2" points="589.27,-462.4 578.78,-463.88 587.91,-469.27 589.27,-462.4"/>
</g>
<!-- 15&#45;&gt;17 -->
<g id="edge41" class="edge">
<title>15&#45;&gt;17</title>
<path fill="none" stroke="grey" stroke-width="2" d="M853.41,-503.3C847.16,-493.42 840.25,-480.59 837,-468 809,-359.55 786.16,-316.3 836,-216 879.72,-128.02 1004.01,-101.95 1075.55,-94.24"/>
<polygon fill="grey" stroke="grey" stroke-width="2" points="1075.64,-97.75 1085.25,-93.29 1074.96,-90.78 1075.64,-97.75"/>
</g>
<!-- 15&#45;&gt;22 -->
<g id="edge66" class="edge">
<title>15&#45;&gt;22</title>
<path fill="none" stroke="grey" stroke-width="2" d="M887.03,-503.09C915.91,-478.61 965.36,-437.15 975,-432 1023.37,-406.17 1046.95,-425.76 1093,-396 1117.35,-380.27 1138.55,-354.84 1152.68,-335.19"/>
<polygon fill="grey" stroke="grey" stroke-width="2" points="1155.42,-337.38 1158.24,-327.17 1149.67,-333.39 1155.42,-337.38"/>
</g>
<!-- 15&#45;&gt;27 -->
<g id="edge82" class="edge">
<title>15&#45;&gt;27</title>
<path fill="none" stroke="grey" stroke-width="2" d="M858.39,-503.15C846.33,-471.85 826.72,-406.03 853,-360 868.61,-332.66 893.66,-348.02 914,-324 931.21,-303.68 954.43,-233.9 967,-193.18"/>
<polygon fill="grey" stroke="grey" stroke-width="2" points="970.31,-194.33 969.88,-183.74 963.62,-192.28 970.31,-194.33"/>
</g>
<!-- 16&#45;&gt;15 -->
<g id="edge34" class="edge">
<title>16&#45;&gt;15</title>
<path fill="none" stroke="grey" stroke-width="2" d="M1086.23,-582.29C1041.87,-570.35 969.84,-550.96 920.31,-537.62"/>
<polygon fill="grey" stroke="grey" stroke-width="2" points="921.41,-534.29 910.84,-535.07 919.59,-541.05 921.41,-534.29"/>
</g>
<!-- 19 -->
<g id="node20" class="node">
<title>19</title>
<path fill="none" stroke="#d88d56" stroke-width="2" d="M1445,-396C1445,-396 1347,-396 1347,-396 1341,-396 1335,-390 1335,-384 1335,-384 1335,-372 1335,-372 1335,-366 1341,-360 1347,-360 1347,-360 1445,-360 1445,-360 1451,-360 1457,-366 1457,-372 1457,-372 1457,-384 1457,-384 1457,-390 1451,-396 1445,-396"/>
<text text-anchor="middle" x="1396" y="-375.5" font-family="sans" font-size="10.00">analyze_prob_escape</text>
</g>
<!-- 16&#45;&gt;19 -->
<g id="edge62" class="edge">
<title>16&#45;&gt;19</title>
<path fill="none" stroke="grey" stroke-width="2" d="M1139.17,-575.13C1163.64,-542.94 1219.13,-474.57 1279,-432 1295.55,-420.23 1315.13,-410.13 1333.48,-402"/>
<polygon fill="grey" stroke="grey" stroke-width="2" points="1334.72,-405.28 1342.55,-398.13 1331.97,-398.84 1334.72,-405.28"/>
</g>
<!-- 17&#45;&gt;0 -->
<g id="edge3" class="edge">
<title>17&#45;&gt;0</title>
<path fill="none" stroke="grey" stroke-width="2" d="M1128,-71.34C1128,-64.75 1128,-57.08 1128,-49.67"/>
<polygon fill="grey" stroke="grey" stroke-width="2" points="1131.5,-49.93 1128,-39.93 1124.5,-49.93 1131.5,-49.93"/>
</g>
<!-- 18&#45;&gt;17 -->
<g id="edge44" class="edge">
<title>18&#45;&gt;17</title>
<path fill="none" stroke="grey" stroke-width="2" d="M975.35,-359C985.99,-349.33 998.57,-336.79 1008,-324 1057.37,-257.02 1097.44,-166.83 1116.31,-120.77"/>
<polygon fill="grey" stroke="grey" stroke-width="2" points="1119.53,-122.14 1120.02,-111.56 1113.04,-119.52 1119.53,-122.14"/>
</g>
<!-- 18&#45;&gt;22 -->
<g id="edge75" class="edge">
<title>18&#45;&gt;22</title>
<path fill="none" stroke="grey" stroke-width="2" d="M1009.6,-359.06C1043.12,-348.25 1085.55,-334.56 1118.49,-323.94"/>
<polygon fill="grey" stroke="grey" stroke-width="2" points="1119.29,-327.36 1127.74,-320.96 1117.15,-320.69 1119.29,-327.36"/>
</g>
<!-- 18&#45;&gt;27 -->
<g id="edge85" class="edge">
<title>18&#45;&gt;27</title>
<path fill="none" stroke="grey" stroke-width="2" d="M969.99,-359.3C977.65,-349.62 986.01,-336.97 990,-324 1003.55,-279.92 993.93,-226.08 985.31,-193.18"/>
<polygon fill="grey" stroke="grey" stroke-width="2" points="988.74,-192.46 982.68,-183.77 982,-194.34 988.74,-192.46"/>
</g>
<!-- 19&#45;&gt;17 -->
<g id="edge42" class="edge">
<title>19&#45;&gt;17</title>
<path fill="none" stroke="grey" stroke-width="2" d="M1416.98,-359.25C1441.39,-337.08 1480.36,-296.58 1496,-252 1514.1,-200.39 1484.27,-171.51 1437,-144 1394.31,-119.15 1256.83,-102.9 1180.43,-95.54"/>
<polygon fill="grey" stroke="grey" stroke-width="2" points="1181.11,-92.09 1170.83,-94.64 1180.46,-99.06 1181.11,-92.09"/>
</g>
<!-- 19&#45;&gt;22 -->
<g id="edge70" class="edge">
<title>19&#45;&gt;22</title>
<path fill="none" stroke="grey" stroke-width="2" d="M1337.81,-359.03C1304.72,-348.8 1262.53,-335.72 1225,-324 1224.59,-323.87 1224.17,-323.74 1223.75,-323.61"/>
<polygon fill="grey" stroke="grey" stroke-width="2" points="1224.87,-320.29 1214.28,-320.64 1222.78,-326.97 1224.87,-320.29"/>
</g>
<!-- 19&#45;&gt;27 -->
<g id="edge83" class="edge">
<title>19&#45;&gt;27</title>
<path fill="none" stroke="grey" stroke-width="2" d="M1360.99,-359.17C1325.51,-341.12 1269.01,-312.48 1220,-288 1187.64,-271.84 1179.27,-268.35 1147,-252 1104.09,-230.25 1055.45,-204.87 1021.05,-186.79"/>
<polygon fill="grey" stroke="grey" stroke-width="2" points="1023.11,-183.92 1012.63,-182.36 1019.85,-190.11 1023.11,-183.92"/>
</g>
<!-- 20&#45;&gt;17 -->
<g id="edge46" class="edge">
<title>20&#45;&gt;17</title>
<path fill="none" stroke="grey" stroke-width="2" d="M597.6,-359.1C585.7,-315.54 562.55,-203.26 620,-144 651.3,-111.71 951.98,-97.31 1075.46,-92.73"/>
<polygon fill="grey" stroke="grey" stroke-width="2" points="1075.34,-96.24 1085.21,-92.38 1075.09,-89.24 1075.34,-96.24"/>
</g>
<!-- 20&#45;&gt;22 -->
<g id="edge67" class="edge">
<title>20&#45;&gt;22</title>
<path fill="none" stroke="grey" stroke-width="2" d="M649.97,-371.21C754.81,-358.29 1007.38,-327.16 1117.81,-313.56"/>
<polygon fill="grey" stroke="grey" stroke-width="2" points="1118.05,-317.05 1127.55,-312.36 1117.2,-310.1 1118.05,-317.05"/>
</g>
<!-- 20&#45;&gt;27 -->
<g id="edge87" class="edge">
<title>20&#45;&gt;27</title>
<path fill="none" stroke="grey" stroke-width="2" d="M631.4,-359.12C647.69,-348.86 668.51,-335.73 687,-324 737.29,-292.11 751.03,-285.89 800,-252 821.93,-236.82 824.83,-229.2 848,-216 873.21,-201.63 903.08,-189.04 927.62,-179.74"/>
<polygon fill="grey" stroke="grey" stroke-width="2" points="928.56,-183.12 936.72,-176.36 926.12,-176.56 928.56,-183.12"/>
</g>
<!-- 21 -->
<g id="node22" class="node">
<title>21</title>
<path fill="none" stroke="#56d86b" stroke-width="2" d="M1205.5,-252C1205.5,-252 1168.5,-252 1168.5,-252 1162.5,-252 1156.5,-246 1156.5,-240 1156.5,-240 1156.5,-228 1156.5,-228 1156.5,-222 1162.5,-216 1168.5,-216 1168.5,-216 1205.5,-216 1205.5,-216 1211.5,-216 1217.5,-222 1217.5,-228 1217.5,-228 1217.5,-240 1217.5,-240 1217.5,-246 1211.5,-252 1205.5,-252"/>
<text text-anchor="middle" x="1187" y="-231.5" font-family="sans" font-size="10.00">subindex</text>
</g>
<!-- 21&#45;&gt;17 -->
<g id="edge53" class="edge">
<title>21&#45;&gt;17</title>
<path fill="none" stroke="grey" stroke-width="2" d="M1179.53,-215.02C1169.69,-191.33 1152.25,-149.35 1140.41,-120.86"/>
<polygon fill="grey" stroke="grey" stroke-width="2" points="1143.64,-119.53 1136.57,-111.63 1137.18,-122.21 1143.64,-119.53"/>
</g>
<!-- 21&#45;&gt;27 -->
<g id="edge93" class="edge">
<title>21&#45;&gt;27</title>
<path fill="none" stroke="grey" stroke-width="2" d="M1155.87,-222.67C1121.24,-211.18 1064.88,-192.48 1024.47,-179.08"/>
<polygon fill="grey" stroke="grey" stroke-width="2" points="1025.69,-175.8 1015.09,-175.97 1023.48,-182.44 1025.69,-175.8"/>
</g>
<!-- 22&#45;&gt;17 -->
<g id="edge59" class="edge">
<title>22&#45;&gt;17</title>
<path fill="none" stroke="grey" stroke-width="2" d="M1211.36,-304.23C1286.93,-301.86 1445.22,-292.09 1479,-252 1489.31,-239.76 1488.06,-229.19 1479,-216 1411.89,-118.25 1260.94,-96.4 1180.61,-91.87"/>
<polygon fill="grey" stroke="grey" stroke-width="2" points="1181.06,-88.38 1170.9,-91.41 1180.73,-95.38 1181.06,-88.38"/>
</g>
<!-- 22&#45;&gt;21 -->
<g id="edge65" class="edge">
<title>22&#45;&gt;21</title>
<path fill="none" stroke="grey" stroke-width="2" d="M1175.04,-287.34C1176.56,-280.67 1178.34,-272.89 1180.05,-265.39"/>
<polygon fill="grey" stroke="grey" stroke-width="2" points="1183.42,-266.38 1182.23,-255.85 1176.59,-264.82 1183.42,-266.38"/>
</g>
<!-- 22&#45;&gt;27 -->
<g id="edge99" class="edge">
<title>22&#45;&gt;27</title>
<path fill="none" stroke="grey" stroke-width="2" d="M1134.69,-287.14C1116.5,-277.6 1094.47,-265.13 1076,-252 1049.43,-233.11 1021.94,-208.19 1002.53,-189.53"/>
<polygon fill="grey" stroke="grey" stroke-width="2" points="1005.2,-187.24 995.6,-182.78 1000.32,-192.26 1005.2,-187.24"/>
</g>
<!-- 23&#45;&gt;17 -->
<g id="edge40" class="edge">
<title>23&#45;&gt;17</title>
<path fill="none" stroke="grey" stroke-width="2" d="M224.79,-215.14C246.04,-193.87 284.87,-159.3 326,-144 464.04,-92.65 919.76,-89.95 1075.37,-90.58"/>
<polygon fill="grey" stroke="grey" stroke-width="2" points="1075.16,-94.08 1085.17,-90.63 1075.19,-87.08 1075.16,-94.08"/>
</g>
<!-- 23&#45;&gt;27 -->
<g id="edge81" class="edge">
<title>23&#45;&gt;27</title>
<path fill="none" stroke="grey" stroke-width="2" d="M274.23,-218.22C278.88,-217.4 283.5,-216.65 288,-216 525.85,-181.72 813.38,-168.62 926.7,-164.56"/>
<polygon fill="grey" stroke="grey" stroke-width="2" points="926.74,-168.06 936.61,-164.21 926.49,-161.06 926.74,-168.06"/>
</g>
<!-- 24 -->
<g id="node25" class="node">
<title>24</title>
<path fill="none" stroke="#56d8c9" stroke-width="2" d="M1458,-252C1458,-252 1400,-252 1400,-252 1394,-252 1388,-246 1388,-240 1388,-240 1388,-228 1388,-228 1388,-222 1394,-216 1400,-216 1400,-216 1458,-216 1458,-216 1464,-216 1470,-222 1470,-228 1470,-228 1470,-240 1470,-240 1470,-246 1464,-252 1458,-252"/>
<text text-anchor="middle" x="1429" y="-231.5" font-family="sans" font-size="10.00">make_graphs</text>
</g>
<!-- 24&#45;&gt;17 -->
<g id="edge54" class="edge">
<title>24&#45;&gt;17</title>
<path fill="none" stroke="grey" stroke-width="2" d="M1390.88,-215.02C1336.71,-189.46 1237.42,-142.62 1177.59,-114.39"/>
<polygon fill="grey" stroke="grey" stroke-width="2" points="1179.09,-111.23 1168.55,-110.13 1176.1,-117.56 1179.09,-111.23"/>
</g>
<!-- 24&#45;&gt;27 -->
<g id="edge94" class="edge">
<title>24&#45;&gt;27</title>
<path fill="none" stroke="grey" stroke-width="2" d="M1387.15,-219.27C1382.74,-218.06 1378.3,-216.94 1374,-216 1249.88,-188.75 1100.7,-173.44 1025.1,-166.87"/>
<polygon fill="grey" stroke="grey" stroke-width="2" points="1025.58,-163.4 1015.32,-166.04 1024.98,-170.38 1025.58,-163.4"/>
</g>
<!-- 25&#45;&gt;17 -->
<g id="edge52" class="edge">
<title>25&#45;&gt;17</title>
<path fill="none" stroke="grey" stroke-width="2" d="M499.82,-215.35C516.23,-194.29 546.79,-159.93 582,-144 669.21,-104.55 956.07,-94.38 1075.3,-91.83"/>
<polygon fill="grey" stroke="grey" stroke-width="2" points="1075.37,-95.33 1085.3,-91.62 1075.23,-88.33 1075.37,-95.33"/>
</g>
<!-- 25&#45;&gt;27 -->
<g id="edge92" class="edge">
<title>25&#45;&gt;27</title>
<path fill="none" stroke="grey" stroke-width="2" d="M568.3,-221.36C670.51,-206.73 842.76,-182.07 926.84,-170.04"/>
<polygon fill="grey" stroke="grey" stroke-width="2" points="927.16,-173.53 936.56,-168.65 926.17,-166.6 927.16,-173.53"/>
</g>
<!-- 26&#45;&gt;17 -->
<g id="edge51" class="edge">
<title>26&#45;&gt;17</title>
<path fill="none" stroke="grey" stroke-width="2" d="M353.67,-287.12C343.2,-253.96 326.89,-182.79 364,-144 413.02,-92.75 910.96,-90.11 1075.52,-90.66"/>
<polygon fill="grey" stroke="grey" stroke-width="2" points="1075.1,-94.15 1085.12,-90.69 1075.13,-87.15 1075.1,-94.15"/>
</g>
<!-- 26&#45;&gt;27 -->
<g id="edge91" class="edge">
<title>26&#45;&gt;27</title>
<path fill="none" stroke="grey" stroke-width="2" d="M426.25,-298.85C492.83,-291.59 597.94,-277.21 686,-252 725.84,-240.6 732.74,-229.24 772,-216 824.21,-198.39 885.57,-183.16 927.26,-173.6"/>
<polygon fill="grey" stroke="grey" stroke-width="2" points="927.87,-177.06 936.85,-171.43 926.32,-170.23 927.87,-177.06"/>
</g>
<!-- 27&#45;&gt;17 -->
<g id="edge50" class="edge">
<title>27&#45;&gt;17</title>
<path fill="none" stroke="grey" stroke-width="2" d="M1012.41,-144.23C1031.81,-135.3 1055.98,-124.17 1077.2,-114.39"/>
<polygon fill="grey" stroke="grey" stroke-width="2" points="1078.59,-117.61 1086.21,-110.24 1075.67,-111.25 1078.59,-117.61"/>
</g>
</g>
</svg>
